<?xml version="1.0" encoding="UTF-8"?>
<!DOCTYPE svg PUBLIC "-//W3C//DTD SVG 1.1//EN" "http://www.w3.org/Graphics/SVG/1.1/DTD/svg11.dtd">
<svg xmlns="http://www.w3.org/2000/svg" version="1.1" width="512px" height="512px" style="shape-rendering:geometricPrecision; text-rendering:geometricPrecision; image-rendering:optimizeQuality; fill-rule:evenodd; clip-rule:evenodd" xmlns:xlink="http://www.w3.org/1999/xlink">
<g><path style="opacity:0.97" fill="#030303" d="M 201.5,23.5 C 203.827,23.2471 205.827,23.9137 207.5,25.5C 214.667,41.8333 221.833,58.1667 229,74.5C 229.5,82.1594 229.666,89.8261 229.5,97.5C 233.167,97.5 236.833,97.5 240.5,97.5C 240.333,73.4977 240.5,49.4977 241,25.5C 241.75,24.8742 242.584,24.3742 243.5,24C 256.5,23.3333 269.5,23.3333 282.5,24C 283.333,24.8333 284.167,25.6667 285,26.5C 285.5,50.1643 285.667,73.831 285.5,97.5C 289.514,97.6655 293.514,97.4988 297.5,97C 293.709,89.2748 293.542,81.4415 297,73.5C 304.755,62.3306 311.755,50.6639 318,38.5C 319.106,34.1965 320.106,29.8632 321,25.5C 325.724,22.4317 329.391,23.4317 332,28.5C 340.132,40.6493 347.465,53.316 354,66.5C 359.115,76.3346 359.615,86.3346 355.5,96.5C 386.495,97.3332 417.495,97.8332 448.5,98C 464,101.5 473.5,111 477,126.5C 477.667,215.833 477.667,305.167 477,394.5C 473.381,410.452 463.548,419.952 447.5,423C 402.168,423.5 356.835,423.667 311.5,423.5C 311.5,441.167 311.5,458.833 311.5,476.5C 317.29,476.096 322.956,476.596 328.5,478C 329.602,480.401 329.769,482.901 329,485.5C 328.25,486.126 327.416,486.626 326.5,487C 279.833,487.667 233.167,487.667 186.5,487C 185.584,486.626 184.75,486.126 184,485.5C 183.231,482.901 183.398,480.401 184.5,478C 190.044,476.596 195.71,476.096 201.5,476.5C 201.5,458.833 201.5,441.167 201.5,423.5C 155.499,423.667 109.499,423.5 63.5,423C 47.452,419.952 37.6187,410.452 34,394.5C 33.3333,305.167 33.3333,215.833 34,126.5C 37.5,111 47,101.5 62.5,98C 100.832,97.5 139.165,97.3333 177.5,97.5C 177.334,89.8261 177.5,82.1594 178,74.5C 184.333,59.5 190.667,44.5 197,29.5C 197.804,26.8541 199.304,24.8541 201.5,23.5 Z M 237.5,424.5 C 250.167,424.5 262.833,424.5 275.5,424.5C 275.5,441.833 275.5,459.167 275.5,476.5C 262.833,476.5 250.167,476.5 237.5,476.5C 237.5,459.167 237.5,441.833 237.5,424.5 Z"/></g>
<g><path style="opacity:0.924" fill="#020202" d="M 107.5,28.5 C 129.015,28.5117 138.848,39.1783 137,60.5C 128.731,78.7023 115.564,83.2023 97.5,74C 84.5358,60.9869 84.2025,47.6536 96.5,34C 100.017,31.6738 103.683,29.8405 107.5,28.5 Z"/></g>
<g><path style="opacity:1" fill="#826c00" d="M 250.5,34.5 C 258.65,33.5073 266.983,33.1739 275.5,33.5C 275.5,35.5 275.5,37.5 275.5,39.5C 271.5,39.5 267.5,39.5 263.5,39.5C 266.962,38.5184 270.629,38.185 274.5,38.5C 274.5,37.1667 274.5,35.8333 274.5,34.5C 266.5,34.5 258.5,34.5 250.5,34.5 Z"/></g>
<g><path style="opacity:1" fill="#fad000" d="M 250.5,34.5 C 258.5,34.5 266.5,34.5 274.5,34.5C 274.5,35.8333 274.5,37.1667 274.5,38.5C 270.629,38.185 266.962,38.5184 263.5,39.5C 259.887,41.8236 259.553,44.6569 262.5,48C 266.821,48.499 271.154,48.6657 275.5,48.5C 275.5,50.1667 275.5,51.8333 275.5,53.5C 271.486,53.3345 267.486,53.5012 263.5,54C 259.518,57.0485 259.518,60.0485 263.5,63C 267.486,63.4988 271.486,63.6655 275.5,63.5C 275.5,65.1667 275.5,66.8333 275.5,68.5C 271.486,68.3345 267.486,68.5012 263.5,69C 259.518,71.9515 259.518,74.9515 263.5,78C 267.152,78.4986 270.818,78.6653 274.5,78.5C 274.5,79.8333 274.5,81.1667 274.5,82.5C 270.958,82.1872 267.625,82.5206 264.5,83.5C 261.95,83.8844 260.617,85.3844 260.5,88C 260.522,90.1829 261.522,91.6829 263.5,92.5C 266.962,93.4816 270.629,93.815 274.5,93.5C 274.5,94.8333 274.5,96.1667 274.5,97.5C 270.629,97.185 266.962,97.5184 263.5,98.5C 260.164,100.527 259.664,103.193 262,106.5C 262.671,107.252 263.504,107.586 264.5,107.5C 267.625,108.479 270.958,108.813 274.5,108.5C 274.5,109.833 274.5,111.167 274.5,112.5C 270.818,112.335 267.152,112.501 263.5,113C 259.518,116.048 259.518,119.048 263.5,122C 267.486,122.499 271.486,122.666 275.5,122.5C 275.5,124.167 275.5,125.833 275.5,127.5C 267.167,127.5 258.833,127.5 250.5,127.5C 250.5,96.5 250.5,65.5 250.5,34.5 Z"/></g>
<g><path style="opacity:1" fill="#b8dff9" d="M 109.5,38.5 C 123.632,39.4558 129.132,46.7892 126,60.5C 120.46,68.6721 113.294,70.5054 104.5,66C 98.8823,61.0712 97.0489,54.9045 99,47.5C 101.505,43.1888 105.005,40.1888 109.5,38.5 Z"/></g>
<g><path style="opacity:1" fill="#f6cda5" d="M 202.5,42.5 C 204.474,44.428 205.974,46.7613 207,49.5C 209.891,56.9498 213.058,64.2831 216.5,71.5C 207.859,72.498 199.192,72.8314 190.5,72.5C 194.301,62.4323 198.301,52.4323 202.5,42.5 Z"/></g>
<g><path style="opacity:1" fill="#c56b35" d="M 327.5,42.5 C 333.978,50.7686 339.478,59.7686 344,69.5C 348.615,78.5272 348.615,87.5272 344,96.5C 331.698,108.739 319.698,108.405 308,95.5C 303.879,89.3352 303.546,83.0018 307,76.5C 315.115,65.9365 321.948,54.6031 327.5,42.5 Z"/></g>
<g><path style="opacity:0.923" fill="#010101" d="M 392.5,48.5 C 413.674,48.1652 421.507,58.1652 416,78.5C 408.132,89.1123 398.299,91.279 386.5,85C 378.081,77.2547 376.248,68.088 381,57.5C 384.134,53.5244 387.967,50.5244 392.5,48.5 Z"/></g>
<g><path style="opacity:0.86" fill="#000000" d="M 461.5,48.5 C 471.554,48.3787 474.554,52.8787 470.5,62C 462.064,65.9412 457.564,63.4412 457,54.5C 457.599,51.7458 459.099,49.7458 461.5,48.5 Z"/></g>
<g><path style="opacity:1" fill="#b5dbf5" d="M 394.5,58.5 C 403.344,57.8522 407.844,61.8522 408,70.5C 404.363,78.547 398.863,80.2137 391.5,75.5C 386.843,68.7523 387.843,63.0856 394.5,58.5 Z"/></g>
<g><path style="opacity:0.851" fill="#000000" d="M 45.5,67.5 C 53.1955,68.8949 55.6955,73.2282 53,80.5C 47.967,84.7793 43.3003,84.4459 39,79.5C 37.3053,73.2125 39.472,69.2125 45.5,67.5 Z"/></g>
<g><path style="opacity:0.839" fill="#000000" d="M 152.5,77.5 C 160.168,77.3321 163.335,80.9988 162,88.5C 159.774,92.8608 156.274,94.3608 151.5,93C 147.443,91.0527 145.943,87.886 147,83.5C 148.021,80.6499 149.854,78.6499 152.5,77.5 Z"/></g>
<g><path style="opacity:1" fill="#d3e415" d="M 187.5,82.5 C 191.167,82.5 194.833,82.5 198.5,82.5C 198.5,97.5 198.5,112.5 198.5,127.5C 194.833,127.5 191.167,127.5 187.5,127.5C 187.5,112.5 187.5,97.5 187.5,82.5 Z"/></g>
<g><path style="opacity:1" fill="#b1dd00" d="M 208.5,82.5 C 211.833,82.5 215.167,82.5 218.5,82.5C 218.5,97.5 218.5,112.5 218.5,127.5C 215.167,127.5 211.833,127.5 208.5,127.5C 208.5,112.5 208.5,97.5 208.5,82.5 Z"/></g>
<g><path style="opacity:1" fill="#5b7200" d="M 208.5,82.5 C 211.962,81.5184 215.629,81.185 219.5,81.5C 219.83,97.0091 219.496,112.342 218.5,127.5C 218.5,112.5 218.5,97.5 218.5,82.5C 215.167,82.5 211.833,82.5 208.5,82.5 Z"/></g>
<g><path style="opacity:1" fill="#a88b00" d="M 274.5,78.5 C 275.451,79.9187 275.784,81.5853 275.5,83.5C 271.833,83.5 268.167,83.5 264.5,83.5C 267.625,82.5206 270.958,82.1872 274.5,82.5C 274.5,81.1667 274.5,79.8333 274.5,78.5 Z"/></g>
<g><path style="opacity:1" fill="#7e6900" d="M 263.5,92.5 C 267.5,92.5 271.5,92.5 275.5,92.5C 275.5,94.5 275.5,96.5 275.5,98.5C 271.5,98.5 267.5,98.5 263.5,98.5C 266.962,97.5184 270.629,97.185 274.5,97.5C 274.5,96.1667 274.5,94.8333 274.5,93.5C 270.629,93.815 266.962,93.4816 263.5,92.5 Z"/></g>
<g><path style="opacity:1" fill="#525964" d="M 64.5,107.5 C 102.167,107.5 139.833,107.5 177.5,107.5C 177.5,114.167 177.5,120.833 177.5,127.5C 140.498,127.333 103.498,127.5 66.5,128C 65.3333,128.5 64.5,129.333 64,130.5C 63.3333,207.167 63.3333,283.833 64,360.5C 64.3742,361.416 64.8742,362.25 65.5,363C 192.167,363.667 318.833,363.667 445.5,363C 446.126,362.25 446.626,361.416 447,360.5C 447.667,283.833 447.667,207.167 447,130.5C 446.5,129.333 445.667,128.5 444.5,128C 411.835,127.5 379.168,127.333 346.5,127.5C 347.276,120.852 347.943,114.185 348.5,107.5C 380.835,107.333 413.168,107.5 445.5,108C 455.297,109.795 462.13,115.295 466,124.5C 467.157,169.622 467.657,214.789 467.5,260C 467.333,303.833 467.167,347.667 467,391.5C 464.536,403.297 457.369,410.464 445.5,413C 318.833,413.667 192.167,413.667 65.5,413C 53.6667,410.5 46.5,403.333 44,391.5C 43.3333,303.833 43.3333,216.167 44,128.5C 47.0161,117.652 53.8495,110.652 64.5,107.5 Z"/></g>
<g><path style="opacity:1" fill="#a88b00" d="M 264.5,107.5 C 268.167,107.5 271.833,107.5 275.5,107.5C 275.784,109.415 275.451,111.081 274.5,112.5C 274.5,111.167 274.5,109.833 274.5,108.5C 270.958,108.813 267.625,108.479 264.5,107.5 Z"/></g>
<g><path style="opacity:1" fill="#4f5661" d="M 228.5,107.5 C 232.5,107.5 236.5,107.5 240.5,107.5C 240.5,114.167 240.5,120.833 240.5,127.5C 236.5,127.5 232.5,127.5 228.5,127.5C 228.5,120.833 228.5,114.167 228.5,107.5 Z"/></g>
<g><path style="opacity:1" fill="#505762" d="M 284.5,107.5 C 291.175,107.334 297.842,107.5 304.5,108C 305.915,114.401 306.915,120.901 307.5,127.5C 300.167,127.5 292.833,127.5 285.5,127.5C 285.287,120.826 284.954,114.159 284.5,107.5 Z"/></g>
<g><path style="opacity:1" fill="#222a3e" d="M 315.5,113.5 C 322.804,116.039 330.137,116.039 337.5,113.5C 337.647,118.214 337.314,122.881 336.5,127.5C 330.167,127.5 323.833,127.5 317.5,127.5C 317.05,122.798 316.383,118.132 315.5,113.5 Z"/></g>
<g><path style="opacity:1" fill="#d5dceb" d="M 73.5,137.5 C 100.169,137.333 126.835,137.5 153.5,138C 147.12,152.827 151.12,163.827 165.5,171C 231.5,171.667 297.5,171.667 363.5,171C 376.508,166.504 382.008,157.337 380,143.5C 379.167,141.833 378.333,140.167 377.5,138.5C 397.489,137.5 417.489,137.167 437.5,137.5C 437.5,209.5 437.5,281.5 437.5,353.5C 316.167,353.5 194.833,353.5 73.5,353.5C 73.5,340.5 73.5,327.5 73.5,314.5C 93.8361,314.667 114.169,314.5 134.5,314C 138.5,311 138.5,308 134.5,305C 124.816,304.832 115.149,304.332 105.5,303.5C 113.098,283.872 120.598,264.206 128,244.5C 129.565,241.106 131.565,240.772 134,243.5C 142.735,266.539 151.569,289.539 160.5,312.5C 163.671,315.335 166.504,315.002 169,311.5C 161.289,287.211 152.455,263.211 142.5,239.5C 156.435,229.321 159.268,216.655 151,201.5C 147.585,196.875 143.085,193.875 137.5,192.5C 136.67,186.862 136.17,181.196 136,175.5C 133.523,170.632 130.523,170.299 127,174.5C 126.501,180.491 126.334,186.491 126.5,192.5C 116.361,194.469 109.861,200.469 107,210.5C 105.544,218.045 106.877,225.045 111,231.5C 113.9,234.4 116.733,237.233 119.5,240C 111.333,261.167 103.167,282.333 95,303.5C 87.9213,304.48 80.7546,304.813 73.5,304.5C 73.5,248.833 73.5,193.167 73.5,137.5 Z"/></g>
<g><path style="opacity:1" fill="#06c763" d="M 167.5,137.5 C 232.168,137.333 296.834,137.5 361.5,138C 370.746,141.96 372.912,148.46 368,157.5C 366.048,159.894 363.548,161.394 360.5,162C 296.833,162.667 233.167,162.667 169.5,162C 160.607,158.037 158.107,151.537 162,142.5C 163.812,140.7 165.645,139.033 167.5,137.5 Z"/></g>
<g><path style="opacity:1" fill="#080909" d="M 208.5,191.5 C 213.511,191.334 218.511,191.501 223.5,192C 226.418,195.472 226.085,198.472 222.5,201C 218.167,201.667 213.833,201.667 209.5,201C 205.968,198.172 205.634,195.005 208.5,191.5 Z"/></g>
<g><path style="opacity:1" fill="#080809" d="M 238.5,191.5 C 248.172,191.334 257.839,191.5 267.5,192C 271.5,195 271.5,198 267.5,201C 257.833,201.667 248.167,201.667 238.5,201C 234.581,197.84 234.581,194.673 238.5,191.5 Z"/></g>
<g><path style="opacity:1" fill="#060607" d="M 277.5,191.5 C 287.172,191.334 296.839,191.5 306.5,192C 310.5,195 310.5,198 306.5,201C 297.167,201.667 287.833,201.667 278.5,201C 274.86,198.302 274.527,195.135 277.5,191.5 Z"/></g>
<g><path style="opacity:1" fill="#d1d8e6" d="M 126.5,201.5 C 139.344,200.849 145.844,206.849 146,219.5C 144.865,223.641 142.531,226.975 139,229.5C 137.735,226.539 136.569,223.539 135.5,220.5C 133.473,218.661 131.14,218.161 128.5,219C 126.288,222.304 124.455,225.804 123,229.5C 116.037,223.226 114.704,215.893 119,207.5C 121.114,204.879 123.614,202.879 126.5,201.5 Z"/></g>
<g><path style="opacity:1" fill="#020202" d="M 208.5,211.5 C 213.511,211.334 218.511,211.501 223.5,212C 226.167,214.667 226.167,217.333 223.5,220C 218.5,220.667 213.5,220.667 208.5,220C 205.899,217.17 205.899,214.337 208.5,211.5 Z"/></g>
<g><path style="opacity:1" fill="#010101" d="M 238.5,211.5 C 256.503,211.333 274.503,211.5 292.5,212C 295.167,214.667 295.167,217.333 292.5,220C 274.167,220.667 255.833,220.667 237.5,220C 234.751,216.762 235.085,213.929 238.5,211.5 Z"/></g>
<g><path style="opacity:1" fill="#080808" d="M 302.5,211.5 C 307.511,211.334 312.511,211.501 317.5,212C 320.167,214.667 320.167,217.333 317.5,220C 312.167,220.667 306.833,220.667 301.5,220C 298.751,216.762 299.085,213.929 302.5,211.5 Z"/></g>
<g><path style="opacity:1" fill="#010102" d="M 326.5,211.5 C 336.506,211.334 346.506,211.5 356.5,212C 359.167,214.667 359.167,217.333 356.5,220C 346.5,220.667 336.5,220.667 326.5,220C 323.899,217.17 323.899,214.337 326.5,211.5 Z"/></g>
<g><path style="opacity:1" fill="#0d0d0e" d="M 209.5,230.5 C 214.628,230.112 219.628,230.612 224.5,232C 226.013,234.916 225.68,237.582 223.5,240C 218.5,240.667 213.5,240.667 208.5,240C 205.753,236.553 206.087,233.386 209.5,230.5 Z"/></g>
<g><path style="opacity:1" fill="#0f0f10" d="M 238.5,230.5 C 244.842,230.334 251.175,230.5 257.5,231C 261.482,234.048 261.482,237.048 257.5,240C 251.167,240.667 244.833,240.667 238.5,240C 234.581,236.84 234.581,233.673 238.5,230.5 Z"/></g>
<g><path style="opacity:1" fill="#0c0d0d" d="M 268.5,230.5 C 282.837,230.333 297.171,230.5 311.5,231C 315.072,233.626 315.405,236.626 312.5,240C 297.5,240.667 282.5,240.667 267.5,240C 264.753,236.553 265.087,233.386 268.5,230.5 Z"/></g>
<g><path style="opacity:1" fill="#0d0d0e" d="M 322.5,230.5 C 331.839,230.334 341.173,230.5 350.5,231C 354.085,233.528 354.418,236.528 351.5,240C 341.5,240.667 331.5,240.667 321.5,240C 318.675,236.476 319.008,233.31 322.5,230.5 Z"/></g>
<g><path style="opacity:1" fill="#0e0f10" d="M 362.5,230.5 C 366.846,230.334 371.179,230.501 375.5,231C 378.791,233.332 379.291,236.165 377,239.5C 371.918,240.637 366.751,240.804 361.5,240C 357.622,236.447 357.955,233.281 362.5,230.5 Z"/></g>
<g><path style="opacity:1" fill="#060607" d="M 209.5,250.5 C 214.628,250.112 219.628,250.612 224.5,252C 225.591,254.064 225.758,256.231 225,258.5C 222.243,260.027 219.243,260.693 216,260.5C 210.824,261.749 207.657,259.916 206.5,255C 206.557,252.791 207.557,251.291 209.5,250.5 Z"/></g>
<g><path style="opacity:1" fill="#070808" d="M 238.5,250.5 C 246.507,250.334 254.507,250.5 262.5,251C 266.5,254 266.5,257 262.5,260C 254.5,260.667 246.5,260.667 238.5,260C 234.581,256.84 234.581,253.673 238.5,250.5 Z"/></g>
<g><path style="opacity:1" fill="#040404" d="M 273.5,250.5 C 289.503,250.333 305.503,250.5 321.5,251C 325.5,254 325.5,257 321.5,260C 305.5,260.667 289.5,260.667 273.5,260C 269.527,256.706 269.527,253.54 273.5,250.5 Z"/></g>
<g><path style="opacity:1" fill="#050606" d="M 332.5,250.5 C 337.628,250.112 342.628,250.612 347.5,252C 348.591,254.064 348.758,256.231 348,258.5C 345.243,260.027 342.243,260.693 339,260.5C 336.443,260.445 333.943,260.112 331.5,259.5C 328.76,256.135 329.093,253.135 332.5,250.5 Z"/></g>
<g><path style="opacity:1" fill="#0d0d0e" d="M 208.5,270.5 C 213.511,270.334 218.511,270.501 223.5,271C 226.418,274.472 226.085,277.472 222.5,280C 218.167,280.667 213.833,280.667 209.5,280C 205.956,277.127 205.623,273.96 208.5,270.5 Z"/></g>
<g><path style="opacity:1" fill="#0e0e0f" d="M 238.5,270.5 C 248.172,270.334 257.839,270.5 267.5,271C 271.717,274.473 271.384,277.473 266.5,280C 257.5,280.667 248.5,280.667 239.5,280C 234.744,277.249 234.41,274.082 238.5,270.5 Z"/></g>
<g><path style="opacity:1" fill="#0c0c0d" d="M 277.5,270.5 C 287.506,270.334 297.506,270.5 307.5,271C 310.311,274.294 309.978,277.294 306.5,280C 297.167,280.667 287.833,280.667 278.5,280C 274.956,277.127 274.623,273.96 277.5,270.5 Z"/></g>
<g><path style="opacity:1" fill="#0f1011" d="M 316.5,270.5 C 321.511,270.334 326.511,270.501 331.5,271C 335.717,274.473 335.384,277.473 330.5,280C 326.167,280.667 321.833,280.667 317.5,280C 313.846,277.209 313.513,274.043 316.5,270.5 Z"/></g>
<g><path style="opacity:1" fill="#0b0a0b" d="M 184.5,294.5 C 264.501,294.333 344.501,294.5 424.5,295C 425.333,295.833 426.167,296.667 427,297.5C 427.667,312.167 427.667,326.833 427,341.5C 426.167,342.333 425.333,343.167 424.5,344C 344.5,344.667 264.5,344.667 184.5,344C 183.299,343.097 182.465,341.931 182,340.5C 181.333,326.167 181.333,311.833 182,297.5C 183.045,296.627 183.878,295.627 184.5,294.5 Z"/></g>
<g><path style="opacity:1" fill="#f68d18" d="M 220.5,316.5 C 221.482,313.038 221.815,309.371 221.5,305.5C 227.833,305.5 234.167,305.5 240.5,305.5C 240.335,309.182 240.501,312.848 241,316.5C 244.048,320.482 247.048,320.482 250,316.5C 250.499,312.514 250.666,308.514 250.5,304.5C 257.167,304.5 263.833,304.5 270.5,304.5C 270.334,308.846 270.501,313.179 271,317.5C 274.343,320.447 277.176,320.113 279.5,316.5C 280.482,313.038 280.815,309.371 280.5,305.5C 286.833,305.5 293.167,305.5 299.5,305.5C 299.185,309.371 299.518,313.038 300.5,316.5C 302.693,320.043 305.36,320.377 308.5,317.5C 309.439,313.235 309.772,308.902 309.5,304.5C 316.167,304.5 322.833,304.5 329.5,304.5C 329.334,308.514 329.501,312.514 330,316.5C 332.952,320.482 335.952,320.482 339,316.5C 339.499,312.848 339.665,309.182 339.5,305.5C 345.833,305.5 352.167,305.5 358.5,305.5C 358.185,309.371 358.518,313.038 359.5,316.5C 361.693,320.043 364.36,320.377 367.5,317.5C 368.439,313.235 368.772,308.902 368.5,304.5C 375.167,304.5 381.833,304.5 388.5,304.5C 388.334,308.514 388.501,312.514 389,316.5C 391.952,320.482 394.952,320.482 398,316.5C 398.499,312.514 398.666,308.514 398.5,304.5C 404.833,304.5 411.167,304.5 417.5,304.5C 417.5,314.167 417.5,323.833 417.5,333.5C 342.167,333.5 266.833,333.5 191.5,333.5C 191.5,323.833 191.5,314.167 191.5,304.5C 198.167,304.5 204.833,304.5 211.5,304.5C 211.334,308.846 211.501,313.179 212,317.5C 215.162,320.17 217.995,319.837 220.5,316.5 Z"/></g>
<g><path style="opacity:1" fill="#a96111" d="M 339.5,305.5 C 345.979,304.509 352.646,304.176 359.5,304.5C 359.5,308.5 359.5,312.5 359.5,316.5C 358.518,313.038 358.185,309.371 358.5,305.5C 352.167,305.5 345.833,305.5 339.5,305.5 Z"/></g>
<g><path style="opacity:1" fill="#945510" d="M 300.5,316.5 C 299.518,313.038 299.185,309.371 299.5,305.5C 293.167,305.5 286.833,305.5 280.5,305.5C 280.815,309.371 280.482,313.038 279.5,316.5C 279.5,312.5 279.5,308.5 279.5,304.5C 286.5,304.5 293.5,304.5 300.5,304.5C 300.5,308.5 300.5,312.5 300.5,316.5 Z"/></g>
<g><path style="opacity:1" fill="#af6411" d="M 240.5,305.5 C 234.167,305.5 227.833,305.5 221.5,305.5C 221.815,309.371 221.482,313.038 220.5,316.5C 220.5,312.5 220.5,308.5 220.5,304.5C 227.354,304.176 234.021,304.509 240.5,305.5 Z"/></g>
<g><path style="opacity:1" fill="#bc6c13" d="M 417.5,304.5 C 418.494,314.319 418.827,324.319 418.5,334.5C 342.665,334.833 266.998,334.499 191.5,333.5C 266.833,333.5 342.167,333.5 417.5,333.5C 417.5,323.833 417.5,314.167 417.5,304.5 Z"/></g>
<g><path style="opacity:1" fill="#020303" d="M 253.5,379.5 C 263.666,379.818 267.5,384.818 265,394.5C 259.295,401.046 253.628,401.046 248,394.5C 245.328,387.845 247.161,382.845 253.5,379.5 Z"/></g>
<g><path style="opacity:1" fill="#32383e" d="M 212.5,424.5 C 217.167,424.5 221.833,424.5 226.5,424.5C 226.5,441.833 226.5,459.167 226.5,476.5C 221.833,476.5 217.167,476.5 212.5,476.5C 212.5,459.167 212.5,441.833 212.5,424.5 Z"/></g>
<g><path style="opacity:1" fill="#32383e" d="M 286.5,424.5 C 291.167,424.5 295.833,424.5 300.5,424.5C 300.5,441.833 300.5,459.167 300.5,476.5C 295.833,476.5 291.167,476.5 286.5,476.5C 286.5,459.167 286.5,441.833 286.5,424.5 Z"/></g>
</svg>
