<?xml version="1.0" encoding="UTF-8"?>
<svg xmlns="http://www.w3.org/2000/svg" xmlns:xlink="http://www.w3.org/1999/xlink" width="1129px" height="720px" viewBox="0 0 1129 720" version="1.1">
<defs>
<filter id="alpha" filterUnits="objectBoundingBox" x="0%" y="0%" width="100%" height="100%">
  <feColorMatrix type="matrix" in="SourceGraphic" values="0 0 0 0 1 0 0 0 0 1 0 0 0 0 1 0 0 0 1 0"/>
</filter>
<mask id="mask0">
  <g filter="url(#alpha)">
<rect x="0" y="0" width="1129" height="720" style="fill:rgb(0%,0%,0%);fill-opacity:0.976471;stroke:none;"/>
  </g>
</mask>
<clipPath id="clip1">
  <rect x="0" y="0" width="1129" height="720"/>
</clipPath>
<g id="surface5" clip-path="url(#clip1)">
<path style=" stroke:none;fill-rule:evenodd;fill:rgb(23.921569%,53.333333%,81.568627%);fill-opacity:1;" d="M 242.558594 -0.9375 C 482.667969 -0.9375 722.773438 -0.9375 962.882812 -0.9375 C 974.019531 3.371094 981.367188 9.621094 984.933594 17.8125 C 986.894531 229.0625 986.894531 440.3125 984.933594 651.5625 C 979.546875 660 970.234375 665.9375 957.003906 669.375 C 940.371094 670.3125 923.710938 670.625 907.023438 670.3125 C 904.578125 469.191406 903.109375 267.941406 902.613281 66.5625 C 898.277344 58.796875 889.949219 53.484375 877.621094 50.625 C 849.214844 49.6875 820.792969 49.375 792.359375 49.6875 C 600.753906 50.3125 409.648438 49.6875 219.039062 47.8125 C 218.550781 37.167969 219.039062 26.542969 220.507812 15.9375 C 225.335938 8.8125 232.683594 3.1875 242.558594 -0.9375 Z M 242.558594 -0.9375 "/>
</g>
<mask id="mask1">
  <g filter="url(#alpha)">
<rect x="0" y="0" width="1129" height="720" style="fill:rgb(0%,0%,0%);fill-opacity:0.992157;stroke:none;"/>
  </g>
</mask>
<clipPath id="clip2">
  <rect x="0" y="0" width="1129" height="720"/>
</clipPath>
<g id="surface8" clip-path="url(#clip2)">
<path style=" stroke:none;fill-rule:evenodd;fill:rgb(78.039216%,92.941176%,98.823529%);fill-opacity:1;" d="M 219.039062 47.8125 C 409.648438 49.6875 600.753906 50.3125 792.359375 49.6875 C 804.347656 53.382812 813.65625 59.007812 820.289062 66.5625 C 821.757812 94.679688 822.25 122.804688 821.757812 150.9375 C 818.445312 149.773438 815.503906 148.210938 812.9375 146.25 C 734.535156 145 656.132812 145 577.730469 146.25 C 566.359375 152.339844 566.359375 158.589844 577.730469 165 C 655.152344 166.25 732.578125 166.25 810 165 C 815.4375 163.707031 819.359375 161.519531 821.757812 158.4375 C 821.757812 171.5625 821.757812 184.6875 821.757812 197.8125 C 818.445312 196.644531 815.503906 195.085938 812.9375 193.125 C 734.535156 191.875 656.132812 191.875 577.730469 193.125 C 565.96875 199.375 565.96875 205.625 577.730469 211.875 C 655.152344 213.125 732.578125 213.125 810 211.875 C 814.363281 210.632812 818.28125 209.070312 821.757812 207.1875 C 821.757812 219.6875 821.757812 232.1875 821.757812 244.6875 C 818.28125 242.804688 814.363281 241.242188 810 240 C 732.578125 238.75 655.152344 238.75 577.730469 240 C 565.96875 246.25 565.96875 252.5 577.730469 258.75 C 656.132812 260 734.535156 260 812.9375 258.75 C 815.503906 256.789062 818.445312 255.230469 821.757812 254.0625 C 821.757812 282.8125 821.757812 311.5625 821.757812 340.3125 C 819.4375 339.78125 817.476562 338.84375 815.878906 337.5 C 723.757812 336.25 631.632812 336.25 539.507812 337.5 C 537.570312 355.171875 536.585938 372.984375 536.570312 390.9375 C 536.605469 409.148438 537.582031 427.269531 539.507812 445.3125 C 631.617188 447.5 723.738281 447.8125 815.878906 446.25 C 817.476562 444.90625 819.4375 443.96875 821.757812 443.4375 C 821.757812 465.3125 821.757812 487.1875 821.757812 509.0625 C 818.820312 507.8125 815.878906 506.5625 812.9375 505.3125 C 739.9375 503.132812 666.433594 502.820312 592.429688 504.375 C 590.796875 505.09375 589.816406 506.03125 589.492188 507.1875 C 585.414062 512.613281 586.398438 517.921875 592.429688 523.125 C 664.953125 524.375 737.476562 524.375 810 523.125 C 814.363281 521.882812 818.28125 520.320312 821.757812 518.4375 C 822.714844 531.914062 821.734375 545.039062 818.820312 557.8125 C 817.589844 556.457031 815.632812 555.519531 812.9375 555 C 739.4375 553.75 665.933594 553.75 592.429688 555 C 584.589844 560.625 584.589844 566.25 592.429688 571.875 C 665.933594 573.125 739.4375 573.125 812.9375 571.875 C 815.503906 569.914062 818.445312 568.355469 821.757812 567.1875 C 821.757812 580.9375 821.757812 594.6875 821.757812 608.4375 C 818.820312 607.1875 815.878906 605.9375 812.9375 604.6875 C 739.9375 602.507812 666.433594 602.195312 592.429688 603.75 C 590.796875 604.46875 589.816406 605.40625 589.492188 606.5625 C 585.414062 611.988281 586.398438 617.296875 592.429688 622.5 C 664.953125 623.75 737.476562 623.75 810 622.5 C 814.363281 621.257812 818.28125 619.695312 821.757812 617.8125 C 822.25 645.320312 821.757812 672.820312 820.289062 700.3125 C 814.34375 708.789062 805.03125 715.035156 792.359375 719.0625 C 582.632812 719.0625 372.902344 719.0625 163.175781 719.0625 C 152.042969 714.753906 144.691406 708.503906 141.125 700.3125 C 139.164062 489.0625 139.164062 277.8125 141.125 66.5625 C 146.515625 58.125 155.824219 52.1875 169.054688 48.75 C 185.6875 47.8125 202.347656 47.5 219.039062 47.8125 Z M 219.039062 47.8125 "/>
</g>
</defs>
<g id="surface1">
<use xlink:href="#surface5" mask="url(#mask0)"/>
<use xlink:href="#surface8" mask="url(#mask1)"/>
<path style=" stroke:none;fill-rule:evenodd;fill:rgb(70.196078%,85.490196%,99.215686%);fill-opacity:1;" d="M 792.359375 49.6875 C 820.792969 49.375 849.214844 49.6875 877.621094 50.625 C 889.949219 53.484375 898.277344 58.796875 902.613281 66.5625 C 903.109375 267.941406 904.578125 469.191406 907.023438 670.3125 C 911.894531 683.917969 909.445312 697.042969 899.671875 709.6875 C 894.585938 713.253906 889.195312 716.378906 883.5 719.0625 C 853.121094 719.0625 822.738281 719.0625 792.359375 719.0625 C 805.03125 715.035156 814.34375 708.789062 820.289062 700.3125 C 821.757812 672.820312 822.25 645.320312 821.757812 617.8125 C 821.757812 614.6875 821.757812 611.5625 821.757812 608.4375 C 821.757812 594.6875 821.757812 580.9375 821.757812 567.1875 C 822.152344 563.828125 821.175781 560.703125 818.820312 557.8125 C 821.734375 545.039062 822.714844 531.914062 821.757812 518.4375 C 821.757812 515.3125 821.757812 512.1875 821.757812 509.0625 C 821.757812 487.1875 821.757812 465.3125 821.757812 443.4375 C 821.757812 409.0625 821.757812 374.6875 821.757812 340.3125 C 821.757812 311.5625 821.757812 282.8125 821.757812 254.0625 C 821.757812 250.9375 821.757812 247.8125 821.757812 244.6875 C 821.757812 232.1875 821.757812 219.6875 821.757812 207.1875 C 821.757812 204.0625 821.757812 200.9375 821.757812 197.8125 C 821.757812 184.6875 821.757812 171.5625 821.757812 158.4375 C 821.757812 155.9375 821.757812 153.4375 821.757812 150.9375 C 822.25 122.804688 821.757812 94.679688 820.289062 66.5625 C 813.65625 59.007812 804.347656 53.382812 792.359375 49.6875 Z M 792.359375 49.6875 "/>
<path style=" stroke:none;fill-rule:evenodd;fill:rgb(99.215686%,66.27451%,36.470588%);fill-opacity:1;" d="M 371.921875 104.0625 C 370.953125 135.640625 371.933594 166.890625 374.863281 197.8125 C 422.882812 197.8125 470.90625 197.8125 518.929688 197.8125 C 507.964844 263.867188 450.144531 294.804688 345.460938 290.625 C 289.261719 282.289062 251.53125 260.726562 232.269531 225.9375 C 214.382812 170.9375 245.253906 131.875 324.882812 108.75 C 340.128906 105.402344 355.8125 103.839844 371.921875 104.0625 Z M 371.921875 104.0625 "/>
<path style=" stroke:none;fill-rule:evenodd;fill:rgb(94.509804%,53.333333%,42.352941%);fill-opacity:1;" d="M 371.921875 104.0625 C 378.496094 103.511719 384.375 104.136719 389.5625 105.9375 C 384.664062 105.9375 379.765625 105.9375 374.863281 105.9375 C 374.863281 136.5625 374.863281 167.1875 374.863281 197.8125 C 371.933594 166.890625 370.953125 135.640625 371.921875 104.0625 Z M 371.921875 104.0625 "/>
<path style=" stroke:none;fill-rule:evenodd;fill:rgb(92.941176%,38.431373%,38.039216%);fill-opacity:1;" d="M 389.5625 105.9375 C 450.660156 111.441406 492.308594 132.691406 514.519531 169.6875 C 517.929688 178.9375 519.398438 188.3125 518.929688 197.8125 C 470.90625 197.8125 422.882812 197.8125 374.863281 197.8125 C 374.863281 167.1875 374.863281 136.5625 374.863281 105.9375 C 379.765625 105.9375 384.664062 105.9375 389.5625 105.9375 Z M 389.5625 105.9375 "/>
<path style=" stroke:none;fill-rule:evenodd;fill:rgb(26.27451%,36.862745%,37.254902%);fill-opacity:1;" d="M 821.757812 150.9375 C 821.757812 153.4375 821.757812 155.9375 821.757812 158.4375 C 819.359375 161.519531 815.4375 163.707031 810 165 C 732.578125 166.25 655.152344 166.25 577.730469 165 C 566.359375 158.589844 566.359375 152.339844 577.730469 146.25 C 656.132812 145 734.535156 145 812.9375 146.25 C 815.503906 148.210938 818.445312 149.773438 821.757812 150.9375 Z M 821.757812 150.9375 "/>
<path style=" stroke:none;fill-rule:evenodd;fill:rgb(26.27451%,36.862745%,37.254902%);fill-opacity:1;" d="M 821.757812 197.8125 C 821.757812 200.9375 821.757812 204.0625 821.757812 207.1875 C 818.28125 209.070312 814.363281 210.632812 810 211.875 C 732.578125 213.125 655.152344 213.125 577.730469 211.875 C 565.96875 205.625 565.96875 199.375 577.730469 193.125 C 656.132812 191.875 734.535156 191.875 812.9375 193.125 C 815.503906 195.085938 818.445312 196.644531 821.757812 197.8125 Z M 821.757812 197.8125 "/>
<path style=" stroke:none;fill-rule:evenodd;fill:rgb(26.27451%,37.254902%,37.254902%);fill-opacity:1;" d="M 821.757812 244.6875 C 821.757812 247.8125 821.757812 250.9375 821.757812 254.0625 C 818.445312 255.230469 815.503906 256.789062 812.9375 258.75 C 734.535156 260 656.132812 260 577.730469 258.75 C 565.96875 252.5 565.96875 246.25 577.730469 240 C 655.152344 238.75 732.578125 238.75 810 240 C 814.363281 241.242188 818.28125 242.804688 821.757812 244.6875 Z M 821.757812 244.6875 "/>
<path style=" stroke:none;fill-rule:evenodd;fill:rgb(92.941176%,38.431373%,38.431373%);fill-opacity:1;" d="M 821.757812 340.3125 C 821.757812 374.6875 821.757812 409.0625 821.757812 443.4375 C 819.4375 443.96875 817.476562 444.90625 815.878906 446.25 C 723.738281 447.8125 631.617188 447.5 539.507812 445.3125 C 537.582031 427.269531 536.605469 409.148438 536.570312 390.9375 C 536.585938 372.984375 537.570312 355.171875 539.507812 337.5 C 631.632812 336.25 723.757812 336.25 815.878906 337.5 C 817.476562 338.84375 819.4375 339.78125 821.757812 340.3125 Z M 821.757812 340.3125 "/>
<path style=" stroke:none;fill-rule:evenodd;fill:rgb(25.882353%,36.862745%,36.862745%);fill-opacity:1;" d="M 236.679688 357.1875 C 313.128906 356.875 389.570312 357.1875 466.007812 358.125 C 480.398438 363.417969 481.378906 369.667969 468.945312 376.875 C 390.542969 378.125 312.140625 378.125 233.738281 376.875 C 222.019531 369.570312 223 363.007812 236.679688 357.1875 Z M 236.679688 357.1875 "/>
<path style=" stroke:none;fill-rule:evenodd;fill:rgb(24.313725%,34.901961%,35.294118%);fill-opacity:1;" d="M 230.796875 405.9375 C 311.164062 405.625 391.53125 405.9375 471.886719 406.875 C 480.152344 413.050781 479.171875 418.675781 468.945312 423.75 C 390.542969 425 312.140625 425 233.738281 423.75 C 222.960938 418.453125 221.980469 412.515625 230.796875 405.9375 Z M 230.796875 405.9375 "/>
<path style=" stroke:none;fill-rule:evenodd;fill:rgb(99.215686%,47.45098%,3.529412%);fill-opacity:1;" d="M 230.796875 486.5625 C 251.148438 485.976562 271.242188 486.601562 291.070312 488.4375 C 293.503906 540.757812 293.015625 592.949219 289.601562 645 C 270 646.25 250.398438 646.25 230.796875 645 C 229.328125 644.0625 227.859375 643.125 226.386719 642.1875 C 224.429688 591.5625 224.429688 540.9375 226.386719 490.3125 C 228.496094 489.292969 229.964844 488.042969 230.796875 486.5625 Z M 230.796875 486.5625 "/>
<path style=" stroke:none;fill-rule:evenodd;fill:rgb(34.901961%,46.27451%,47.45098%);fill-opacity:1;" d="M 812.9375 505.3125 C 738.324219 504.722656 663.84375 505.347656 589.492188 507.1875 C 589.816406 506.03125 590.796875 505.09375 592.429688 504.375 C 666.433594 502.820312 739.9375 503.132812 812.9375 505.3125 Z M 812.9375 505.3125 "/>
<path style=" stroke:none;fill-rule:evenodd;fill:rgb(25.098039%,36.078431%,36.078431%);fill-opacity:1;" d="M 812.9375 505.3125 C 815.878906 506.5625 818.820312 507.8125 821.757812 509.0625 C 821.757812 512.1875 821.757812 515.3125 821.757812 518.4375 C 818.28125 520.320312 814.363281 521.882812 810 523.125 C 737.476562 524.375 664.953125 524.375 592.429688 523.125 C 586.398438 517.921875 585.414062 512.613281 589.492188 507.1875 C 663.84375 505.347656 738.324219 504.722656 812.9375 505.3125 Z M 812.9375 505.3125 "/>
<path style=" stroke:none;fill-rule:evenodd;fill:rgb(99.215686%,59.607843%,23.137255%);fill-opacity:1;" d="M 357.222656 524.0625 C 375.867188 523.75 394.488281 524.0625 413.085938 525 C 414.554688 525.9375 416.023438 526.875 417.496094 527.8125 C 419.921875 567.011719 419.433594 606.074219 416.023438 645 C 405.734375 645.3125 395.445312 645.625 385.152344 645.9375 C 373.597656 645.855469 362.816406 644.605469 352.8125 642.1875 C 350.851562 604.0625 350.851562 565.9375 352.8125 527.8125 C 354.921875 526.792969 356.390625 525.542969 357.222656 524.0625 Z M 357.222656 524.0625 "/>
<path style=" stroke:none;fill-rule:evenodd;fill:rgb(24.313725%,34.901961%,35.294118%);fill-opacity:1;" d="M 818.820312 557.8125 C 821.175781 560.703125 822.152344 563.828125 821.757812 567.1875 C 818.445312 568.355469 815.503906 569.914062 812.9375 571.875 C 739.4375 573.125 665.933594 573.125 592.429688 571.875 C 584.589844 566.25 584.589844 560.625 592.429688 555 C 665.933594 553.75 739.4375 553.75 812.9375 555 C 815.632812 555.519531 817.589844 556.457031 818.820312 557.8125 Z M 818.820312 557.8125 "/>
<path style=" stroke:none;fill-rule:evenodd;fill:rgb(99.215686%,66.666667%,36.862745%);fill-opacity:1;" d="M 483.648438 572.8125 C 502.292969 572.5 520.914062 572.8125 539.507812 573.75 C 540.980469 574.6875 542.449219 575.625 543.917969 576.5625 C 545.878906 598.4375 545.878906 620.3125 543.917969 642.1875 C 542.449219 643.125 540.980469 644.0625 539.507812 645 C 519.179688 646.519531 499.089844 646.210938 479.238281 644.0625 C 478.746094 632.5 478.257812 620.9375 477.765625 609.375 C 477.882812 596.738281 479.84375 584.550781 483.648438 572.8125 Z M 483.648438 572.8125 "/>
<path style=" stroke:none;fill-rule:evenodd;fill:rgb(35.686275%,47.058824%,48.235294%);fill-opacity:1;" d="M 812.9375 604.6875 C 738.324219 604.097656 663.84375 604.722656 589.492188 606.5625 C 589.816406 605.40625 590.796875 604.46875 592.429688 603.75 C 666.433594 602.195312 739.9375 602.507812 812.9375 604.6875 Z M 812.9375 604.6875 "/>
<path style=" stroke:none;fill-rule:evenodd;fill:rgb(25.490196%,36.078431%,36.470588%);fill-opacity:1;" d="M 812.9375 604.6875 C 815.878906 605.9375 818.820312 607.1875 821.757812 608.4375 C 821.757812 611.5625 821.757812 614.6875 821.757812 617.8125 C 818.28125 619.695312 814.363281 621.257812 810 622.5 C 737.476562 623.75 664.953125 623.75 592.429688 622.5 C 586.398438 617.296875 585.414062 611.988281 589.492188 606.5625 C 663.84375 604.722656 738.324219 604.097656 812.9375 604.6875 Z M 812.9375 604.6875 "/>
</g>
</svg>
