<?xml version="1.0" encoding="UTF-8"?>
<!DOCTYPE svg PUBLIC "-//W3C//DTD SVG 1.1//EN" "http://www.w3.org/Graphics/SVG/1.1/DTD/svg11.dtd">
<svg xmlns="http://www.w3.org/2000/svg" version="1.1" width="256px" height="256px" style="shape-rendering:geometricPrecision; text-rendering:geometricPrecision; image-rendering:optimizeQuality; fill-rule:evenodd; clip-rule:evenodd" xmlns:xlink="http://www.w3.org/1999/xlink">
<g><path style="opacity:0.925" fill="#040404" d="M 56.5,2.5 C 82.6124,1.22155 102.612,11.5549 116.5,33.5C 156.162,34.3333 195.829,34.8333 235.5,35C 244.333,37.1667 249.833,42.6667 252,51.5C 252.667,96.8333 252.667,142.167 252,187.5C 249.824,196.342 244.324,201.842 235.5,204C 215.825,204.167 196.158,204.667 176.5,205.5C 177.782,210.567 180.449,214.733 184.5,218C 190.897,218.182 197.23,218.848 203.5,220C 214.099,225.466 217.932,233.966 215,245.5C 213.833,248 212,249.833 209.5,251C 166.559,252.65 123.559,252.984 80.5,252C 70.4779,247.27 67.9779,239.77 73,229.5C 76.3229,223.921 81.1562,220.421 87.5,219C 92.5,218.667 97.5,218.333 102.5,218C 106.702,214.593 109.369,210.26 110.5,205C 90.8333,204.667 71.1667,204.333 51.5,204C 42.6667,201.833 37.1667,196.333 35,187.5C 34.8331,163.826 34.3331,140.16 33.5,116.5C 5.67872,97.8723 -3.15461,72.539 7,40.5C 16.7921,19.0282 33.2921,6.36156 56.5,2.5 Z M 57.5,36.5 C 80.3101,35.8096 91.1435,46.8096 90,69.5C 83.2765,88.0862 70.4432,94.2528 51.5,88C 37.5925,79.28 33.4259,67.1133 39,51.5C 43.3747,44.2369 49.5413,39.2369 57.5,36.5 Z"/></g>
<g><path style="opacity:1" fill="#f77e6a" d="M 49.5,12.5 C 52.8333,12.5 56.1667,12.5 59.5,12.5C 59.5,17.5 59.5,22.5 59.5,27.5C 52.7691,28.3546 46.6024,30.6879 41,34.5C 36.8333,31.6667 33.3333,28.1667 30.5,24C 35.976,18.6785 42.3093,14.8451 49.5,12.5 Z"/></g>
<g><path style="opacity:1" fill="#f3cf6c" d="M 67.5,12.5 C 71.5191,12.6458 75.5191,12.9791 79.5,13.5C 77.9798,18.2158 76.1465,22.8825 74,27.5C 71.9592,28.4231 69.7925,28.7564 67.5,28.5C 67.5,23.1667 67.5,17.8333 67.5,12.5 Z"/></g>
<g><path style="opacity:1" fill="#ee7967" d="M 86.5,17.5 C 90.3175,18.9096 93.6508,21.0762 96.5,24C 93.3653,28.3023 89.6986,32.1356 85.5,35.5C 83.4042,34.4081 82.0708,32.7414 81.5,30.5C 82.9756,26.0701 84.6423,21.7368 86.5,17.5 Z"/></g>
<g><path style="opacity:1" fill="#afd77b" d="M 22.5,30.5 C 27.5267,32.6848 31.5267,36.1848 34.5,41C 23.1896,60.4381 25.8563,77.7715 42.5,93C 55.5511,101.311 68.8844,101.644 82.5,94C 87.3647,90.1319 91.8647,85.9652 96,81.5C 100.686,83.093 105.186,85.093 109.5,87.5C 96.8848,108.64 78.2181,117.807 53.5,115C 29.8959,108.73 16.0625,93.5632 12,69.5C 11.171,62.7658 11.5043,56.0992 13,49.5C 15.1455,42.5593 18.3121,36.226 22.5,30.5 Z"/></g>
<g><path style="opacity:1" fill="#f2cf6b" d="M 101.5,30.5 C 105.518,32.1909 108.185,35.1909 109.5,39.5C 104.808,42.45 99.8082,44.2833 94.5,45C 92.9644,43.4006 92.4644,41.5672 93,39.5C 96.0379,36.6306 98.8712,33.6306 101.5,30.5 Z"/></g>
<g><path style="opacity:1" fill="#c8cdd5" d="M 120.5,43.5 C 158.501,43.3333 196.501,43.5 234.5,44C 238.68,45.0021 241.514,47.5021 243,51.5C 243.167,74.1667 243.333,96.8333 243.5,119.5C 243.657,142.919 243.157,166.252 242,189.5C 240.127,191.709 237.96,193.542 235.5,195C 174.167,195.667 112.833,195.667 51.5,195C 47.5021,193.514 45.0021,190.68 44,186.5C 43.5,164.503 43.3334,142.503 43.5,120.5C 46.1272,121.092 48.7938,121.425 51.5,121.5C 51.3334,136.17 51.5001,150.837 52,165.5C 52.6853,168.057 54.1853,169.891 56.5,171C 114.167,171.667 171.833,171.667 229.5,171C 232.333,170.167 234.167,168.333 235,165.5C 235.987,128.415 235.654,91.4154 234,54.5C 232.581,53.5399 231.081,52.7065 229.5,52C 193.502,51.5 157.502,51.3333 121.5,51.5C 121.425,48.7938 121.092,46.1272 120.5,43.5 Z"/></g>
<g><path style="opacity:1" fill="#f07a67" d="M 110.5,47.5 C 112.124,47.3601 113.29,48.0267 114,49.5C 114.498,52.8168 114.665,56.1501 114.5,59.5C 109.456,59.8275 104.456,59.4941 99.5,58.5C 98.6518,56.5914 98.3184,54.5914 98.5,52.5C 102.787,51.3517 106.787,49.685 110.5,47.5 Z"/></g>
<g><path style="opacity:1" fill="#67d3f0" d="M 68.5,123.5 C 85.7188,121.56 99.7188,113.893 110.5,100.5C 120.144,99.5016 129.81,99.1682 139.5,99.5C 139.5,88.8333 139.5,78.1667 139.5,67.5C 134.695,66.5128 129.695,66.1795 124.5,66.5C 124.5,64.5 124.5,62.5 124.5,60.5C 158.5,60.5 192.5,60.5 226.5,60.5C 226.5,94.5 226.5,128.5 226.5,162.5C 171.167,162.5 115.833,162.5 60.5,162.5C 60.5,149.833 60.5,137.167 60.5,124.5C 63.3854,124.806 66.0521,124.473 68.5,123.5 Z"/></g>
<g><path style="opacity:1" fill="#0b171b" d="M 147.5,67.5 C 158.167,67.5 168.833,67.5 179.5,67.5C 179.5,78.1667 179.5,88.8333 179.5,99.5C 168.833,99.5 158.167,99.5 147.5,99.5C 147.5,88.8333 147.5,78.1667 147.5,67.5 Z"/></g>
<g><path style="opacity:1" fill="#0b171b" d="M 187.5,67.5 C 198.167,67.5 208.833,67.5 219.5,67.5C 219.5,78.1667 219.5,88.8333 219.5,99.5C 208.833,99.5 198.167,99.5 187.5,99.5C 187.5,88.8333 187.5,78.1667 187.5,67.5 Z"/></g>
<g><path style="opacity:1" fill="#030201" d="M 148.5,68.5 C 158.5,68.5 168.5,68.5 178.5,68.5C 178.5,78.5 178.5,88.5 178.5,98.5C 168.5,98.5 158.5,98.5 148.5,98.5C 148.5,88.5 148.5,78.5 148.5,68.5 Z"/></g>
<g><path style="opacity:1" fill="#020201" d="M 188.5,68.5 C 198.5,68.5 208.5,68.5 218.5,68.5C 218.5,78.5 218.5,88.5 218.5,98.5C 208.5,98.5 198.5,98.5 188.5,98.5C 188.5,88.5 188.5,78.5 188.5,68.5 Z"/></g>
<g><path style="opacity:1" fill="#edca69" d="M 98.5,67.5 C 103.833,67.5 109.167,67.5 114.5,67.5C 114.495,71.5341 114.162,75.5341 113.5,79.5C 108.426,78.031 103.426,76.3643 98.5,74.5C 98.5,72.1667 98.5,69.8333 98.5,67.5 Z"/></g>
<g><path style="opacity:1" fill="#f47c69" d="M 121.5,75.5 C 124.833,75.5 128.167,75.5 131.5,75.5C 131.5,80.8333 131.5,86.1667 131.5,91.5C 126.456,91.8275 121.456,91.4941 116.5,90.5C 119.161,85.8499 120.828,80.8499 121.5,75.5 Z"/></g>
<g><path style="opacity:1" fill="#b0d87c" d="M 195.5,75.5 C 200.833,75.5 206.167,75.5 211.5,75.5C 211.5,80.8333 211.5,86.1667 211.5,91.5C 206.167,91.5 200.833,91.5 195.5,91.5C 195.5,86.1667 195.5,80.8333 195.5,75.5 Z"/></g>
<g><path style="opacity:1" fill="#f9d46e" d="M 155.5,75.5 C 160.833,75.5 166.167,75.5 171.5,75.5C 171.5,80.8333 171.5,86.1667 171.5,91.5C 166.167,91.5 160.833,91.5 155.5,91.5C 155.5,86.1667 155.5,80.8333 155.5,75.5 Z"/></g>
<g><path style="opacity:1" fill="#0b171b" d="M 147.5,107.5 C 171.5,107.5 195.5,107.5 219.5,107.5C 219.5,110.167 219.5,112.833 219.5,115.5C 195.5,115.5 171.5,115.5 147.5,115.5C 147.5,112.833 147.5,110.167 147.5,107.5 Z"/></g>
<g><path style="opacity:1" fill="#000000" d="M 148.5,108.5 C 171.833,108.5 195.167,108.5 218.5,108.5C 218.5,110.5 218.5,112.5 218.5,114.5C 195.167,114.5 171.833,114.5 148.5,114.5C 148.5,112.5 148.5,110.5 148.5,108.5 Z"/></g>
<g><path style="opacity:1" fill="#5dbed8" d="M 68.5,123.5 C 66.0521,124.473 63.3854,124.806 60.5,124.5C 60.5,137.167 60.5,149.833 60.5,162.5C 115.833,162.5 171.167,162.5 226.5,162.5C 226.5,128.5 226.5,94.5 226.5,60.5C 192.5,60.5 158.5,60.5 124.5,60.5C 124.5,62.5 124.5,64.5 124.5,66.5C 129.695,66.1795 134.695,66.5128 139.5,67.5C 134.167,67.5 128.833,67.5 123.5,67.5C 123.5,64.8333 123.5,62.1667 123.5,59.5C 158.167,59.5 192.833,59.5 227.5,59.5C 227.5,94.1667 227.5,128.833 227.5,163.5C 171.5,163.5 115.5,163.5 59.5,163.5C 59.5,150.167 59.5,136.833 59.5,123.5C 62.5,123.5 65.5,123.5 68.5,123.5 Z"/></g>
<g><path style="opacity:1" fill="#0b171b" d="M 119.5,139.5 C 152.833,139.5 186.167,139.5 219.5,139.5C 219.5,142.167 219.5,144.833 219.5,147.5C 186.167,147.5 152.833,147.5 119.5,147.5C 152.329,146.502 185.329,146.168 218.5,146.5C 218.5,144.5 218.5,142.5 218.5,140.5C 185.329,140.832 152.329,140.498 119.5,139.5 Z"/></g>
<g><path style="opacity:1" fill="#020304" d="M 119.5,139.5 C 152.329,140.498 185.329,140.832 218.5,140.5C 218.5,142.5 218.5,144.5 218.5,146.5C 185.329,146.168 152.329,146.502 119.5,147.5C 119.5,150.167 119.5,152.833 119.5,155.5C 111.5,155.5 103.5,155.5 95.5,155.5C 95.5,152.833 95.5,150.167 95.5,147.5C 86.1667,147.5 76.8333,147.5 67.5,147.5C 67.5,144.833 67.5,142.167 67.5,139.5C 76.8333,139.5 86.1667,139.5 95.5,139.5C 95.5,136.833 95.5,134.167 95.5,131.5C 103.5,131.5 111.5,131.5 119.5,131.5C 119.5,134.167 119.5,136.833 119.5,139.5 Z"/></g>
<g><path style="opacity:1" fill="#f57d6a" d="M 103.5,139.5 C 106.167,139.5 108.833,139.5 111.5,139.5C 111.5,142.167 111.5,144.833 111.5,147.5C 108.833,147.5 106.167,147.5 103.5,147.5C 103.5,144.833 103.5,142.167 103.5,139.5 Z"/></g>
<g><path style="opacity:1" fill="#040a0c" d="M 147.5,123.5 C 150.167,123.5 152.833,123.5 155.5,123.5C 155.5,126.167 155.5,128.833 155.5,131.5C 152.833,131.5 150.167,131.5 147.5,131.5C 147.5,128.833 147.5,126.167 147.5,123.5 Z"/></g>
<g><path style="opacity:1" fill="#0b171b" d="M 163.5,123.5 C 182.167,123.5 200.833,123.5 219.5,123.5C 219.5,126.167 219.5,128.833 219.5,131.5C 200.833,131.5 182.167,131.5 163.5,131.5C 163.5,128.833 163.5,126.167 163.5,123.5 Z"/></g>
<g><path style="opacity:1" fill="#000000" d="M 164.5,124.5 C 182.5,124.5 200.5,124.5 218.5,124.5C 218.5,126.5 218.5,128.5 218.5,130.5C 200.5,130.5 182.5,130.5 164.5,130.5C 164.5,128.5 164.5,126.5 164.5,124.5 Z"/></g>
<g><path style="opacity:1" fill="#09090a" d="M 59.5,179.5 C 62.1667,179.5 64.8333,179.5 67.5,179.5C 67.5,182.167 67.5,184.833 67.5,187.5C 64.8333,187.5 62.1667,187.5 59.5,187.5C 59.5,184.833 59.5,182.167 59.5,179.5 Z"/></g>
<g><path style="opacity:1" fill="#09090a" d="M 75.5,179.5 C 78.1667,179.5 80.8333,179.5 83.5,179.5C 83.5,182.167 83.5,184.833 83.5,187.5C 80.8333,187.5 78.1667,187.5 75.5,187.5C 75.5,184.833 75.5,182.167 75.5,179.5 Z"/></g>
<g><path style="opacity:1" fill="#09090a" d="M 91.5,179.5 C 94.1667,179.5 96.8333,179.5 99.5,179.5C 99.5,182.167 99.5,184.833 99.5,187.5C 96.8333,187.5 94.1667,187.5 91.5,187.5C 91.5,184.833 91.5,182.167 91.5,179.5 Z"/></g>
<g><path style="opacity:1" fill="#a5adb8" d="M 118.5,203.5 C 135.167,203.5 151.833,203.5 168.5,203.5C 168.459,209.209 170.125,214.376 173.5,219C 153.5,219.667 133.5,219.667 113.5,219C 116.875,214.376 118.541,209.209 118.5,203.5 Z"/></g>
<g><path style="opacity:1" fill="#939ca7" d="M 87.5,227.5 C 124.835,227.333 162.168,227.5 199.5,228C 203.908,230.233 206.575,233.733 207.5,238.5C 207.61,240.374 206.944,241.874 205.5,243C 164.167,243.667 122.833,243.667 81.5,243C 79.5561,240.847 79.0561,238.347 80,235.5C 82.0282,232.308 84.5282,229.641 87.5,227.5 Z"/></g>
</svg>
