<?xml version="1.0" encoding="UTF-8"?>
<!DOCTYPE svg PUBLIC "-//W3C//DTD SVG 1.1//EN" "http://www.w3.org/Graphics/SVG/1.1/DTD/svg11.dtd">
<svg xmlns="http://www.w3.org/2000/svg" version="1.1" width="597px" height="516px" style="shape-rendering:geometricPrecision; text-rendering:geometricPrecision; image-rendering:optimizeQuality; fill-rule:evenodd; clip-rule:evenodd" xmlns:xlink="http://www.w3.org/1999/xlink">
<g><path style="opacity:1" fill="#fefefe" d="M -0.5,-0.5 C 198.5,-0.5 397.5,-0.5 596.5,-0.5C 596.5,171.5 596.5,343.5 596.5,515.5C 397.5,515.5 198.5,515.5 -0.5,515.5C -0.5,343.5 -0.5,171.5 -0.5,-0.5 Z"/></g>
<g><path style="opacity:1" fill="#e5f9f7" d="M 266.5,60.5 C 256.301,58.6789 246.301,59.3456 236.5,62.5C 236.47,61.5028 236.97,60.8361 238,60.5C 246.24,57.5727 254.74,56.7393 263.5,58C 264.942,58.3768 265.942,59.2101 266.5,60.5 Z"/></g>
<g><path style="opacity:1" fill="#35a991" d="M 266.5,60.5 C 276.18,63.1768 284.514,68.1768 291.5,75.5C 294.567,79.0834 297.067,83.0834 299,87.5C 299.816,88.8228 300.983,89.4894 302.5,89.5C 308.582,93.2237 313.916,97.8904 318.5,103.5C 319.604,105.389 320.937,107.055 322.5,108.5C 331.78,125.946 331.78,143.446 322.5,161C 324.038,164.038 326.371,166.205 329.5,167.5C 340.194,178.527 350.861,189.527 361.5,200.5C 367.492,207.825 373.825,214.825 380.5,221.5C 385.796,228.131 391.463,234.465 397.5,240.5C 404.396,250.351 408.229,261.351 409,273.5C 411.037,275.706 413.203,277.706 415.5,279.5C 437.103,301.267 458.436,323.101 479.5,345C 483.043,348.049 486.709,350.882 490.5,353.5C 500.457,363.443 507.457,375.11 511.5,388.5C 511.5,388.833 511.5,389.167 511.5,389.5C 513.283,404.478 510.45,418.478 503,431.5C 494.98,441.182 486.647,450.516 478,459.5C 462.418,478.042 442.585,486.209 418.5,484C 413.172,482.837 408.172,480.837 403.5,478C 396.675,473.335 390.009,468.502 383.5,463.5C 357.191,436.192 330.191,409.525 302.5,383.5C 301.375,381.871 300.041,380.371 298.5,379C 282.559,375.54 268.892,368.04 257.5,356.5C 248.09,346.589 238.423,336.755 228.5,327C 223.895,327.469 219.895,329.302 216.5,332.5C 210.976,335.092 205.976,338.425 201.5,342.5C 184.623,350.675 166.79,354.008 148,352.5C 132.712,355.009 119.212,351.343 107.5,341.5C 102.957,337.123 98.9573,332.29 95.5,327C 82.166,320.836 72.8327,311.003 67.5,297.5C 65.7052,288.959 65.0386,280.292 65.5,271.5C 64.7124,255.254 67.2124,239.588 73,224.5C 82.8122,207.406 92.8122,190.406 103,173.5C 108.087,165.659 113.42,157.992 119,150.5C 138.807,131.025 158.307,111.192 177.5,91C 188.845,81.8453 201.845,77.3453 216.5,77.5C 222.159,71.0199 228.825,66.0199 236.5,62.5C 246.301,59.3456 256.301,58.6789 266.5,60.5 Z"/></g>
<g><path style="opacity:1" fill="#d0e0de" d="M 291.5,75.5 C 296.814,78.4855 300.814,82.8188 303.5,88.5C 303.376,89.1067 303.043,89.44 302.5,89.5C 300.983,89.4894 299.816,88.8228 299,87.5C 297.067,83.0834 294.567,79.0834 291.5,75.5 Z"/></g>
<g><path style="opacity:1" fill="#cdcece" d="M 318.5,103.5 C 319.922,103.709 321.255,104.209 322.5,105C 337.132,123.636 339.465,143.802 329.5,165.5C 327.363,164.53 325.696,163.03 324.5,161C 330.995,146.924 332.162,132.424 328,117.5C 326.643,114.102 324.81,111.102 322.5,108.5C 320.937,107.055 319.604,105.389 318.5,103.5 Z"/></g>
<g><path style="opacity:1" fill="#243030" d="M 252.5,165.5 C 250.177,168.001 250.844,170.001 254.5,171.5C 255.167,172.5 255.833,173.5 256.5,174.5C 255.833,175.167 255.167,175.833 254.5,176.5C 249.791,173.414 247.458,169.081 247.5,163.5C 249.308,163.509 250.975,163.009 252.5,162C 259.313,153.686 266.313,145.519 273.5,137.5C 270.554,136.345 267.554,136.179 264.5,137C 257.581,141.626 250.248,145.459 242.5,148.5C 242.893,145.584 243.893,142.917 245.5,140.5C 245.376,139.893 245.043,139.56 244.5,139.5C 247.386,133.396 250.553,127.396 254,121.5C 254.667,118.5 254.667,115.5 254,112.5C 244.167,123.667 233.667,134.167 222.5,144C 217.894,142.582 214.228,139.749 211.5,135.5C 209.362,134.192 207.362,134.525 205.5,136.5C 204.167,137.167 203.167,138.167 202.5,139.5C 200.937,140.945 199.604,142.611 198.5,144.5C 184.14,159.527 169.473,174.194 154.5,188.5C 153.595,187.298 153.595,185.964 154.5,184.5C 154.369,183.761 154.536,183.094 155,182.5C 166.702,172.466 177.368,161.466 187,149.5C 194.5,142 202,134.5 209.5,127C 214.771,130.082 219.437,134.249 223.5,139.5C 233.806,128.86 244.139,118.193 254.5,107.5C 255.086,107.709 255.586,108.043 256,108.5C 256.779,113.5 257.112,118.5 257,123.5C 252.811,130.946 248.811,138.28 245,145.5C 251.218,140.281 257.718,135.448 264.5,131C 269.377,128.704 274.044,129.037 278.5,132C 279.804,132.804 280.471,133.971 280.5,135.5C 272.218,146.45 262.884,156.45 252.5,165.5 Z"/></g>
<g><path style="opacity:1" fill="#f7fcfd" d="M 211.5,135.5 C 212.587,144.124 213.254,152.791 213.5,161.5C 213.708,166.657 213.042,171.657 211.5,176.5C 209.412,172.822 208.245,168.822 208,164.5C 207.078,155.119 206.245,145.786 205.5,136.5C 207.362,134.525 209.362,134.192 211.5,135.5 Z"/></g>
<g><path style="opacity:1" fill="#f1f8fa" d="M 202.5,139.5 C 203.825,151.34 203.825,163.34 202.5,175.5C 201.914,175.291 201.414,174.957 201,174.5C 200.719,164.443 199.886,154.443 198.5,144.5C 199.604,142.611 200.937,140.945 202.5,139.5 Z"/></g>
<g><path style="opacity:1" fill="#cee8f7" d="M 254.5,176.5 C 255.043,176.56 255.376,176.893 255.5,177.5C 254.828,179.16 253.828,180.493 252.5,181.5C 251.883,181.611 251.383,181.944 251,182.5C 245.898,176.642 240.565,170.976 235,165.5C 234.333,163.833 234.333,162.167 235,160.5C 237.761,156.64 240.261,152.64 242.5,148.5C 250.248,145.459 257.581,141.626 264.5,137C 267.554,136.179 270.554,136.345 273.5,137.5C 266.313,145.519 259.313,153.686 252.5,162C 250.975,163.009 249.308,163.509 247.5,163.5C 247.458,169.081 249.791,173.414 254.5,176.5 Z"/></g>
<g><path style="opacity:1" fill="#c8eae3" d="M 322.5,108.5 C 324.81,111.102 326.643,114.102 328,117.5C 332.162,132.424 330.995,146.924 324.5,161C 325.696,163.03 327.363,164.53 329.5,165.5C 329.5,166.167 329.5,166.833 329.5,167.5C 326.371,166.205 324.038,164.038 322.5,161C 331.78,143.446 331.78,125.946 322.5,108.5 Z"/></g>
<g><path style="opacity:1" fill="#ceeafa" d="M 244.5,139.5 C 239.911,147.015 235.078,154.348 230,161.5C 229.333,163.5 229.333,165.5 230,167.5C 236.015,173.348 241.848,179.348 247.5,185.5C 241.483,191.683 235.649,198.017 230,204.5C 224.909,210.098 219.409,215.098 213.5,219.5C 207.762,212.256 201.428,205.423 194.5,199C 193.833,198.333 193.167,198.333 192.5,199C 187.667,204.5 182.833,210 178,215.5C 157.273,235.061 137.106,255.061 117.5,275.5C 116.883,275.611 116.383,275.944 116,276.5C 114.956,265.851 116.289,255.518 120,245.5C 131.539,226.404 143.039,207.404 154.5,188.5C 169.473,174.194 184.14,159.527 198.5,144.5C 199.886,154.443 200.719,164.443 201,174.5C 201.414,174.957 201.914,175.291 202.5,175.5C 203.825,163.34 203.825,151.34 202.5,139.5C 203.167,138.167 204.167,137.167 205.5,136.5C 206.245,145.786 207.078,155.119 208,164.5C 208.245,168.822 209.412,172.822 211.5,176.5C 213.042,171.657 213.708,166.657 213.5,161.5C 213.254,152.791 212.587,144.124 211.5,135.5C 214.228,139.749 217.894,142.582 222.5,144C 233.667,134.167 244.167,123.667 254,112.5C 254.667,115.5 254.667,118.5 254,121.5C 250.553,127.396 247.386,133.396 244.5,139.5 Z"/></g>
<g><path style="opacity:1" fill="#f4fbfd" d="M 192.5,160.5 C 193.833,160.5 195.167,160.5 196.5,160.5C 196.5,169.5 196.5,178.5 196.5,187.5C 195.5,187.5 194.5,187.5 193.5,187.5C 192.889,181 192.223,174.5 191.5,168C 191.555,165.413 191.889,162.913 192.5,160.5 Z"/></g>
<g><path style="opacity:1" fill="#b0d6d5" d="M 252.5,165.5 C 253.458,167.302 254.125,169.302 254.5,171.5C 250.844,170.001 250.177,168.001 252.5,165.5 Z"/></g>
<g><path style="opacity:1" fill="#272b2e" d="M 244.5,139.5 C 245.043,139.56 245.376,139.893 245.5,140.5C 243.893,142.917 242.893,145.584 242.5,148.5C 240.261,152.64 237.761,156.64 235,160.5C 234.333,162.167 234.333,163.833 235,165.5C 240.565,170.976 245.898,176.642 251,182.5C 251.383,181.944 251.883,181.611 252.5,181.5C 251.783,184.323 250.783,186.99 249.5,189.5C 248.167,189.5 246.833,189.5 245.5,189.5C 244.833,191.5 244.167,193.5 243.5,195.5C 242.075,196.922 241.075,198.589 240.5,200.5C 239.833,200.5 239.5,200.833 239.5,201.5C 236.167,202.167 234.167,204.167 233.5,207.5C 230.43,210.564 227.763,213.897 225.5,217.5C 224.833,217.5 224.5,217.833 224.5,218.5C 220.194,219.25 217.194,221.584 215.5,225.5C 215.5,225.833 215.5,226.167 215.5,226.5C 214.167,226.5 212.833,226.5 211.5,226.5C 211.768,224.901 211.434,223.568 210.5,222.5C 210.5,221.5 210.5,220.5 210.5,219.5C 211.5,219.5 212.5,219.5 213.5,219.5C 219.409,215.098 224.909,210.098 230,204.5C 235.649,198.017 241.483,191.683 247.5,185.5C 241.848,179.348 236.015,173.348 230,167.5C 229.333,165.5 229.333,163.5 230,161.5C 235.078,154.348 239.911,147.015 244.5,139.5 Z"/></g>
<g><path style="opacity:1" fill="#192e2a" d="M 258.5,175.5 C 265.406,174.953 270.739,177.62 274.5,183.5C 271.471,182.323 268.804,180.49 266.5,178C 263.325,178.053 260.658,177.22 258.5,175.5 Z"/></g>
<g><path style="opacity:1" fill="#7f62ce" d="M 279.5,196.5 C 281.239,199.243 283.573,201.243 286.5,202.5C 287.833,205.833 290.167,208.167 293.5,209.5C 296.768,214.107 300.435,218.441 304.5,222.5C 303.761,222.631 303.094,222.464 302.5,222C 289.804,209.638 277.47,196.971 265.5,184C 264.271,183.219 262.938,182.719 261.5,182.5C 258.251,184.336 255.417,186.669 253,189.5C 248.008,196.322 242.508,202.655 236.5,208.5C 232.543,211.122 228.876,214.122 225.5,217.5C 227.763,213.897 230.43,210.564 233.5,207.5C 235.833,205.833 237.833,203.833 239.5,201.5C 239.5,200.833 239.833,200.5 240.5,200.5C 243.833,197.833 246.833,194.833 249.5,191.5C 251.958,187.874 254.958,184.707 258.5,182C 260.833,181.333 263.167,181.333 265.5,182C 270.37,186.702 275.037,191.535 279.5,196.5 Z"/></g>
<g><path style="opacity:1" fill="#303e45" d="M 205.5,185.5 C 207.225,185.843 207.725,186.843 207,188.5C 204.318,191.35 201.484,194.016 198.5,196.5C 197.167,195.167 197.167,193.833 198.5,192.5C 201.855,191.145 204.189,188.811 205.5,185.5 Z"/></g>
<g><path style="opacity:1" fill="#443171" d="M 249.5,191.5 C 246.833,194.833 243.833,197.833 240.5,200.5C 241.075,198.589 242.075,196.922 243.5,195.5C 245.246,193.748 247.246,192.415 249.5,191.5 Z"/></g>
<g><path style="opacity:1" fill="#26262d" d="M 256.5,174.5 C 257.167,174.833 257.833,175.167 258.5,175.5C 260.658,177.22 263.325,178.053 266.5,178C 268.804,180.49 271.471,182.323 274.5,183.5C 278.192,186.862 281.859,190.195 285.5,193.5C 285.848,196.019 287.181,197.853 289.5,199C 288.5,199.333 287.5,199.667 286.5,200C 287.949,201.117 289.616,201.784 291.5,202C 292.227,203.399 292.727,204.899 293,206.5C 295.964,209.288 299.13,211.954 302.5,214.5C 303.451,213.674 304.451,213.508 305.5,214C 305.962,215.722 306.128,217.555 306,219.5C 306.908,221.439 308.408,222.439 310.5,222.5C 310.704,224.685 311.37,226.685 312.5,228.5C 306.527,221.86 300.194,215.527 293.5,209.5C 291.5,206.833 289.167,204.5 286.5,202.5C 284.761,199.757 282.427,197.757 279.5,196.5C 275.037,191.535 270.37,186.702 265.5,182C 263.167,181.333 260.833,181.333 258.5,182C 254.958,184.707 251.958,187.874 249.5,191.5C 247.246,192.415 245.246,193.748 243.5,195.5C 244.167,193.5 244.833,191.5 245.5,189.5C 246.833,189.5 248.167,189.5 249.5,189.5C 250.783,186.99 251.783,184.323 252.5,181.5C 253.828,180.493 254.828,179.16 255.5,177.5C 255.376,176.893 255.043,176.56 254.5,176.5C 255.167,175.833 255.833,175.167 256.5,174.5 Z"/></g>
<g><path style="opacity:1" fill="#3d2e64" d="M 279.5,196.5 C 282.427,197.757 284.761,199.757 286.5,202.5C 283.573,201.243 281.239,199.243 279.5,196.5 Z"/></g>
<g><path style="opacity:1" fill="#2f3c43" d="M 214.5,194.5 C 217.684,194.332 218.184,195.666 216,198.5C 213.356,200.31 210.856,202.31 208.5,204.5C 207.479,203.998 207.312,203.332 208,202.5C 210.415,199.986 212.581,197.319 214.5,194.5 Z"/></g>
<g><path style="opacity:1" fill="#4f3b7f" d="M 286.5,202.5 C 289.167,204.5 291.5,206.833 293.5,209.5C 290.167,208.167 287.833,205.833 286.5,202.5 Z"/></g>
<g><path style="opacity:1" fill="#2c373a" d="M 221.5,204.5 C 223.355,204.272 224.188,204.939 224,206.5C 221.651,209.017 219.151,211.35 216.5,213.5C 215.417,212.635 215.251,211.635 216,210.5C 218.04,208.63 219.873,206.63 221.5,204.5 Z"/></g>
<g><path style="opacity:1" fill="#342352" d="M 239.5,201.5 C 237.833,203.833 235.833,205.833 233.5,207.5C 234.167,204.167 236.167,202.167 239.5,201.5 Z"/></g>
<g><path style="opacity:1" fill="#232928" d="M 285.5,193.5 C 303.198,208.698 319.364,225.364 334,243.5C 338.036,247.704 342.202,251.704 346.5,255.5C 348.833,258.167 351.167,260.833 353.5,263.5C 354.259,265.436 355.259,267.269 356.5,269C 356.164,270.03 355.497,270.53 354.5,270.5C 353.292,269.766 351.959,269.433 350.5,269.5C 348.738,266.263 346.071,263.929 342.5,262.5C 342.5,261.833 342.167,261.5 341.5,261.5C 341.672,260.508 341.338,259.842 340.5,259.5C 339.925,257.589 338.925,255.922 337.5,254.5C 337.539,253.417 337.873,252.417 338.5,251.5C 334.217,249.209 330.217,246.543 326.5,243.5C 324.167,241.833 322.167,239.833 320.5,237.5C 319.833,234.833 318.167,233.167 315.5,232.5C 314.5,231.167 313.5,229.833 312.5,228.5C 311.37,226.685 310.704,224.685 310.5,222.5C 308.408,222.439 306.908,221.439 306,219.5C 306.128,217.555 305.962,215.722 305.5,214C 304.451,213.508 303.451,213.674 302.5,214.5C 299.13,211.954 295.964,209.288 293,206.5C 292.727,204.899 292.227,203.399 291.5,202C 289.616,201.784 287.949,201.117 286.5,200C 287.5,199.667 288.5,199.333 289.5,199C 287.181,197.853 285.848,196.019 285.5,193.5 Z"/></g>
<g><path style="opacity:1" fill="#d5f2ed" d="M 361.5,200.5 C 365.51,204.269 369.676,207.936 374,211.5C 375.626,214.128 377.626,216.461 380,218.5C 380.483,219.448 380.649,220.448 380.5,221.5C 373.825,214.825 367.492,207.825 361.5,200.5 Z"/></g>
<g><path style="opacity:1" fill="#232c2c" d="M 213.5,219.5 C 212.5,219.5 211.5,219.5 210.5,219.5C 210.5,220.5 210.5,221.5 210.5,222.5C 205.407,218.912 200.74,214.745 196.5,210C 193.906,208.399 191.239,208.233 188.5,209.5C 172.452,224.38 157.285,240.047 143,256.5C 137.315,262.685 131.149,268.351 124.5,273.5C 122.071,273.884 119.737,274.551 117.5,275.5C 137.106,255.061 157.273,235.061 178,215.5C 182.833,210 187.667,204.5 192.5,199C 193.167,198.333 193.833,198.333 194.5,199C 201.428,205.423 207.762,212.256 213.5,219.5 Z"/></g>
<g><path style="opacity:1" fill="#6d4ed8" d="M 236.5,208.5 C 233.587,211.917 230.42,215.251 227,218.5C 225.959,225.348 227.959,231.015 233,235.5C 233.483,236.448 233.649,237.448 233.5,238.5C 232.5,237.833 231.5,237.167 230.5,236.5C 228.886,233.607 227.553,230.607 226.5,227.5C 225.676,224.236 225.342,220.902 225.5,217.5C 228.876,214.122 232.543,211.122 236.5,208.5 Z"/></g>
<g><path style="opacity:1" fill="#342672" d="M 224.5,218.5 C 224.5,220.5 224.5,222.5 224.5,224.5C 223.5,224.5 222.5,224.5 221.5,224.5C 221.662,226.527 221.495,228.527 221,230.5C 220.818,227.774 220.318,225.107 219.5,222.5C 218.148,223.524 216.815,224.524 215.5,225.5C 217.194,221.584 220.194,219.25 224.5,218.5 Z"/></g>
<g><path style="opacity:1" fill="#6f4bed" d="M 304.5,222.5 C 307.758,226.425 311.425,230.091 315.5,233.5C 316.833,234.167 317.833,235.167 318.5,236.5C 320.5,240.5 323.5,243.5 327.5,245.5C 331.105,250.774 335.438,255.441 340.5,259.5C 341.338,259.842 341.672,260.508 341.5,261.5C 341.714,268.275 341.047,274.942 339.5,281.5C 338.962,283.117 338.629,284.784 338.5,286.5C 335.708,287.392 334.375,289.392 334.5,292.5C 332.146,295.851 329.146,298.518 325.5,300.5C 323.325,300.682 321.325,301.349 319.5,302.5C 318.558,302.392 317.725,302.059 317,301.5C 315.847,303.497 314.347,303.83 312.5,302.5C 315.343,299.292 318.009,295.959 320.5,292.5C 323.805,288.363 327.638,284.697 332,281.5C 332.696,277.095 332.363,272.761 331,268.5C 329.961,267.29 328.794,266.29 327.5,265.5C 325.167,262.5 322.5,259.833 319.5,257.5C 316.833,254.5 314.167,251.5 311.5,248.5C 309.146,245.149 306.146,242.482 302.5,240.5C 300.1,237.097 297.1,234.43 293.5,232.5C 292.738,230.738 291.404,229.738 289.5,229.5C 288.581,226.911 286.914,224.911 284.5,223.5C 283.833,222.5 283.167,221.5 282.5,220.5C 280.5,216.5 277.5,213.5 273.5,211.5C 272.5,211.167 271.833,210.5 271.5,209.5C 269.634,205.626 266.634,203.293 262.5,202.5C 261.399,201.402 260.066,201.235 258.5,202C 256.341,203.059 254.674,204.559 253.5,206.5C 251.876,206.64 250.71,205.973 250,204.5C 250.596,209.109 248.762,212.109 244.5,213.5C 243.754,214.736 243.421,216.07 243.5,217.5C 242.448,217.351 241.448,217.517 240.5,218C 241.337,219.011 241.67,220.178 241.5,221.5C 239.433,222.263 237.766,223.596 236.5,225.5C 236.167,226.333 235.833,227.167 235.5,228C 235.684,229.376 236.351,230.209 237.5,230.5C 238.833,232.5 240.167,234.5 241.5,236.5C 242.419,239.089 244.086,241.089 246.5,242.5C 247.5,242.833 248.167,243.5 248.5,244.5C 248.369,245.239 248.536,245.906 249,246.5C 255.423,253.428 262.256,259.762 269.5,265.5C 270.833,267.167 272.167,268.833 273.5,270.5C 274.63,272.315 275.296,274.315 275.5,276.5C 276.552,276.351 277.552,276.517 278.5,277C 277.663,278.011 277.33,279.178 277.5,280.5C 276.448,280.649 275.448,280.483 274.5,280C 274.167,279 273.833,278 273.5,277C 271.482,276.495 269.482,275.995 267.5,275.5C 259.806,268.473 252.473,261.14 245.5,253.5C 242.471,250.141 239.471,246.808 236.5,243.5C 235.075,242.078 234.075,240.411 233.5,238.5C 233.649,237.448 233.483,236.448 233,235.5C 227.959,231.015 225.959,225.348 227,218.5C 230.42,215.251 233.587,211.917 236.5,208.5C 242.508,202.655 248.008,196.322 253,189.5C 255.417,186.669 258.251,184.336 261.5,182.5C 262.938,182.719 264.271,183.219 265.5,184C 277.47,196.971 289.804,209.638 302.5,222C 303.094,222.464 303.761,222.631 304.5,222.5 Z"/></g>
<g><path style="opacity:1" fill="#3b2b6c" d="M 249.5,213.5 C 246.15,218.177 242.483,222.51 238.5,226.5C 237.566,227.568 237.232,228.901 237.5,230.5C 236.351,230.209 235.684,229.376 235.5,228C 235.833,227.167 236.167,226.333 236.5,225.5C 237.766,223.596 239.433,222.263 241.5,221.5C 243.137,219.684 244.637,217.684 246,215.5C 246.816,214.177 247.983,213.511 249.5,213.5 Z"/></g>
<g><path style="opacity:1" fill="#2e2455" d="M 284.5,223.5 C 286.914,224.911 288.581,226.911 289.5,229.5C 287.086,228.089 285.419,226.089 284.5,223.5 Z"/></g>
<g><path style="opacity:1" fill="#33271b" d="M 252.5,212.5 C 248.757,217.622 244.757,222.622 240.5,227.5C 244.394,230.945 248.06,234.612 251.5,238.5C 249.606,237.952 247.94,236.952 246.5,235.5C 244.786,236.609 244.119,235.942 244.5,233.5C 243.5,233.5 242.5,233.5 241.5,233.5C 240.801,231.005 239.801,228.672 238.5,226.5C 242.483,222.51 246.15,218.177 249.5,213.5C 250.391,212.89 251.391,212.557 252.5,212.5 Z"/></g>
<g><path style="opacity:1" fill="#6d4fda" d="M 253.5,206.5 C 252.89,207.391 252.557,208.391 252.5,209.5C 250.738,210.262 249.738,211.596 249.5,213.5C 247.983,213.511 246.816,214.177 246,215.5C 244.637,217.684 243.137,219.684 241.5,221.5C 241.67,220.178 241.337,219.011 240.5,218C 241.448,217.517 242.448,217.351 243.5,217.5C 243.421,216.07 243.754,214.736 244.5,213.5C 248.762,212.109 250.596,209.109 250,204.5C 250.71,205.973 251.876,206.64 253.5,206.5 Z"/></g>
<g><path style="opacity:1" fill="#5e46ac" d="M 273.5,211.5 C 277.5,213.5 280.5,216.5 282.5,220.5C 279.167,217.833 276.167,214.833 273.5,211.5 Z"/></g>
<g><path style="opacity:1" fill="#2d224c" d="M 252.5,209.5 C 252.833,209.5 253.167,209.5 253.5,209.5C 252.89,210.391 252.557,211.391 252.5,212.5C 251.391,212.557 250.391,212.89 249.5,213.5C 249.738,211.596 250.738,210.262 252.5,209.5 Z"/></g>
<g><path style="opacity:1" fill="#5642a5" d="M 262.5,202.5 C 266.634,203.293 269.634,205.626 271.5,209.5C 268.208,207.542 265.208,205.209 262.5,202.5 Z"/></g>
<g><path style="opacity:1" fill="#4d3a90" d="M 262.5,202.5 C 260.62,202.229 259.287,202.896 258.5,204.5C 256.184,205.422 254.517,207.089 253.5,209.5C 253.167,209.5 252.833,209.5 252.5,209.5C 252.557,208.391 252.89,207.391 253.5,206.5C 254.674,204.559 256.341,203.059 258.5,202C 260.066,201.235 261.399,201.402 262.5,202.5 Z"/></g>
<g><path style="opacity:1" fill="#6f59a1" d="M 293.5,209.5 C 300.194,215.527 306.527,221.86 312.5,228.5C 313.5,229.833 314.5,231.167 315.5,232.5C 315.5,232.833 315.5,233.167 315.5,233.5C 311.425,230.091 307.758,226.425 304.5,222.5C 300.435,218.441 296.768,214.107 293.5,209.5 Z"/></g>
<g><path style="opacity:1" fill="#4f3b8e" d="M 293.5,232.5 C 297.1,234.43 300.1,237.097 302.5,240.5C 298.9,238.57 295.9,235.903 293.5,232.5 Z"/></g>
<g><path style="opacity:1" fill="#2c2248" d="M 315.5,233.5 C 315.5,233.167 315.5,232.833 315.5,232.5C 318.167,233.167 319.833,234.833 320.5,237.5C 319.833,237.167 319.167,236.833 318.5,236.5C 317.833,235.167 316.833,234.167 315.5,233.5 Z"/></g>
<g><path style="opacity:1" fill="#332573" d="M 211.5,226.5 C 212.833,226.5 214.167,226.5 215.5,226.5C 215.5,230.167 215.5,233.833 215.5,237.5C 213.581,236.388 211.914,235.054 210.5,233.5C 209.328,231.123 209.661,228.79 211.5,226.5 Z"/></g>
<g><path style="opacity:1" fill="#4631b2" d="M 210.5,233.5 C 210.187,229.981 211.52,228.647 214.5,229.5C 213.754,230.736 213.421,232.07 213.5,233.5C 212.5,233.5 211.5,233.5 210.5,233.5 Z"/></g>
<g><path style="opacity:1" fill="#2e281d" d="M 258.5,204.5 C 262.487,204.011 264.82,205.678 265.5,209.5C 266.5,209.5 267.5,209.5 268.5,209.5C 268.238,210.978 268.571,212.311 269.5,213.5C 271.753,216.258 274.253,218.925 277,221.5C 279.184,220.892 281.184,221.559 283,223.5C 283.856,225.868 284.69,228.202 285.5,230.5C 287.833,231.167 290.167,231.833 292.5,232.5C 292.338,234.527 292.505,236.527 293,238.5C 293.383,239.056 293.883,239.389 294.5,239.5C 295.6,240.605 296.267,241.938 296.5,243.5C 284.376,232.412 273.042,220.579 262.5,208C 258.643,208.09 255.31,209.59 252.5,212.5C 252.557,211.391 252.89,210.391 253.5,209.5C 254.517,207.089 256.184,205.422 258.5,204.5 Z"/></g>
<g><path style="opacity:1" fill="#412ca3" d="M 225.5,217.5 C 225.342,220.902 225.676,224.236 226.5,227.5C 224.899,226.357 224.233,227.024 224.5,229.5C 226.239,232.11 227.239,235.11 227.5,238.5C 227.679,241.131 227.013,243.465 225.5,245.5C 224.675,241.878 224.175,238.211 224,234.5C 222.921,237.063 222.421,239.729 222.5,242.5C 220.5,241.5 218.5,240.5 216.5,239.5C 216.167,238.833 215.833,238.167 215.5,237.5C 215.5,233.833 215.5,230.167 215.5,226.5C 215.5,226.167 215.5,225.833 215.5,225.5C 216.815,224.524 218.148,223.524 219.5,222.5C 220.318,225.107 220.818,227.774 221,230.5C 221.495,228.527 221.662,226.527 221.5,224.5C 222.5,224.5 223.5,224.5 224.5,224.5C 224.5,222.5 224.5,220.5 224.5,218.5C 224.5,217.833 224.833,217.5 225.5,217.5 Z"/></g>
<g><path style="opacity:1" fill="#492ec9" d="M 218.5,224.5 C 219.139,225.097 219.472,225.93 219.5,227C 218.854,230.812 218.354,234.646 218,238.5C 215.905,233.724 216.072,229.057 218.5,224.5 Z"/></g>
<g><path style="opacity:1" fill="#533e9d" d="M 241.5,236.5 C 243.914,237.911 245.581,239.911 246.5,242.5C 244.086,241.089 242.419,239.089 241.5,236.5 Z"/></g>
<g><path style="opacity:1" fill="#27242d" d="M 238.5,226.5 C 239.801,228.672 240.801,231.005 241.5,233.5C 242.5,233.5 243.5,233.5 244.5,233.5C 244.119,235.942 244.786,236.609 246.5,235.5C 247.94,236.952 249.606,237.952 251.5,238.5C 252.074,242.888 253.407,246.888 255.5,250.5C 253.167,248.5 250.833,246.5 248.5,244.5C 248.167,243.5 247.5,242.833 246.5,242.5C 245.581,239.911 243.914,237.911 241.5,236.5C 240.167,234.5 238.833,232.5 237.5,230.5C 237.232,228.901 237.566,227.568 238.5,226.5 Z"/></g>
<g><path style="opacity:1" fill="#fbd96e" d="M 296.5,243.5 C 297.443,246.109 299.11,248.109 301.5,249.5C 305.378,254.589 309.711,259.255 314.5,263.5C 316.833,266.5 319.5,269.167 322.5,271.5C 323.523,273.846 324.523,276.179 325.5,278.5C 324.022,278.238 322.689,278.571 321.5,279.5C 321.709,280.086 322.043,280.586 322.5,281C 318.752,282.428 315.252,284.261 312,286.5C 311.667,286.167 311.333,285.833 311,285.5C 310.221,286.728 309.221,287.728 308,288.5C 305.659,286.248 302.826,284.914 299.5,284.5C 298.833,284.167 298.167,283.833 297.5,283.5C 281.53,269.198 266.197,254.198 251.5,238.5C 248.06,234.612 244.394,230.945 240.5,227.5C 244.757,222.622 248.757,217.622 252.5,212.5C 255.31,209.59 258.643,208.09 262.5,208C 273.042,220.579 284.376,232.412 296.5,243.5 Z"/></g>
<g><path style="opacity:1" fill="#5e45b1" d="M 318.5,236.5 C 319.167,236.833 319.833,237.167 320.5,237.5C 322.167,239.833 324.167,241.833 326.5,243.5C 326.833,244.167 327.167,244.833 327.5,245.5C 323.5,243.5 320.5,240.5 318.5,236.5 Z"/></g>
<g><path style="opacity:1" fill="#272330" d="M 262.5,202.5 C 265.208,205.209 268.208,207.542 271.5,209.5C 271.833,210.5 272.5,211.167 273.5,211.5C 276.167,214.833 279.167,217.833 282.5,220.5C 283.167,221.5 283.833,222.5 284.5,223.5C 285.419,226.089 287.086,228.089 289.5,229.5C 291.404,229.738 292.738,230.738 293.5,232.5C 295.9,235.903 298.9,238.57 302.5,240.5C 304.58,242.573 306.246,244.907 307.5,247.5C 306.5,247.5 305.5,247.5 304.5,247.5C 303.212,242.497 299.879,239.83 294.5,239.5C 293.883,239.389 293.383,239.056 293,238.5C 292.505,236.527 292.338,234.527 292.5,232.5C 290.167,231.833 287.833,231.167 285.5,230.5C 284.69,228.202 283.856,225.868 283,223.5C 281.184,221.559 279.184,220.892 277,221.5C 274.253,218.925 271.753,216.258 269.5,213.5C 268.571,212.311 268.238,210.978 268.5,209.5C 267.5,209.5 266.5,209.5 265.5,209.5C 264.82,205.678 262.487,204.011 258.5,204.5C 259.287,202.896 260.62,202.229 262.5,202.5 Z"/></g>
<g><path style="opacity:1" fill="#5c44ac" d="M 302.5,240.5 C 306.146,242.482 309.146,245.149 311.5,248.5C 310.833,248.167 310.167,247.833 309.5,247.5C 308.833,247.5 308.167,247.5 307.5,247.5C 306.246,244.907 304.58,242.573 302.5,240.5 Z"/></g>
<g><path style="opacity:1" fill="#31245e" d="M 230.5,236.5 C 231.5,237.167 232.5,237.833 233.5,238.5C 234.075,240.411 235.075,242.078 236.5,243.5C 236.53,244.497 236.03,245.164 235,245.5C 233.588,244.314 232.421,242.981 231.5,241.5C 230.315,240.143 229.315,238.643 228.5,237C 228.683,235.316 229.35,235.15 230.5,236.5 Z"/></g>
<g><path style="opacity:1" fill="#4733b4" d="M 231.5,241.5 C 231.662,243.527 231.495,245.527 231,247.5C 230.764,249.119 229.931,250.119 228.5,250.5C 228.338,248.473 228.505,246.473 229,244.5C 229.236,242.881 230.069,241.881 231.5,241.5 Z"/></g>
<g><path style="opacity:1" fill="#2c254d" d="M 216.5,239.5 C 218.5,240.5 220.5,241.5 222.5,242.5C 222.785,245.776 224.451,247.776 227.5,248.5C 226.127,248.657 224.793,248.49 223.5,248C 220.811,245.452 218.477,242.618 216.5,239.5 Z"/></g>
<g><path style="opacity:1" fill="#1d3533" d="M 154.5,184.5 C 153.595,185.964 153.595,187.298 154.5,188.5C 143.039,207.404 131.539,226.404 120,245.5C 116.289,255.518 114.956,265.851 116,276.5C 116.383,275.944 116.883,275.611 117.5,275.5C 119.737,274.551 122.071,273.884 124.5,273.5C 121.499,276.493 118.165,279.159 114.5,281.5C 113.555,270.502 113.721,259.502 115,248.5C 126.333,229.167 137.667,209.833 149,190.5C 150.331,188.004 152.164,186.004 154.5,184.5 Z"/></g>
<g><path style="opacity:1" fill="#1e3131" d="M 210.5,222.5 C 211.434,223.568 211.768,224.901 211.5,226.5C 210.5,226.5 209.5,226.5 208.5,226.5C 207.999,231.153 208.666,235.486 210.5,239.5C 200.981,249.515 190.647,258.682 179.5,267C 169.578,277.09 159.578,286.923 149.5,296.5C 148.368,295.646 147.035,295.646 145.5,296.5C 162.481,279.022 180.314,262.355 199,246.5C 201.667,243.167 204.333,239.833 207,236.5C 207,233.167 207,229.833 207,226.5C 209.071,225.897 210.238,224.564 210.5,222.5 Z"/></g>
<g><path style="opacity:1" fill="#4d3a91" d="M 248.5,244.5 C 250.833,246.5 253.167,248.5 255.5,250.5C 260.167,255.5 264.833,260.5 269.5,265.5C 262.256,259.762 255.423,253.428 249,246.5C 248.536,245.906 248.369,245.239 248.5,244.5 Z"/></g>
<g><path style="opacity:1" fill="#302371" d="M 226.5,227.5 C 227.553,230.607 228.886,233.607 230.5,236.5C 229.35,235.15 228.683,235.316 228.5,237C 229.315,238.643 230.315,240.143 231.5,241.5C 230.069,241.881 229.236,242.881 229,244.5C 228.505,246.473 228.338,248.473 228.5,250.5C 227.662,250.158 227.328,249.492 227.5,248.5C 224.451,247.776 222.785,245.776 222.5,242.5C 222.421,239.729 222.921,237.063 224,234.5C 224.175,238.211 224.675,241.878 225.5,245.5C 227.013,243.465 227.679,241.131 227.5,238.5C 227.239,235.11 226.239,232.11 224.5,229.5C 224.233,227.024 224.899,226.357 226.5,227.5 Z"/></g>
<g><path style="opacity:1" fill="#6549b8" d="M 327.5,245.5 C 330.833,248.5 334.167,251.5 337.5,254.5C 338.925,255.922 339.925,257.589 340.5,259.5C 335.438,255.441 331.105,250.774 327.5,245.5 Z"/></g>
<g><path style="opacity:1" fill="#ceeafa" d="M 210.5,239.5 C 216.761,247.265 223.594,254.598 231,261.5C 231.239,262.788 230.739,263.788 229.5,264.5C 209.763,274.872 190.43,286.038 171.5,298C 163.579,299.568 155.579,299.901 147.5,299C 148.381,298.292 149.047,297.458 149.5,296.5C 159.578,286.923 169.578,277.09 179.5,267C 190.647,258.682 200.981,249.515 210.5,239.5 Z"/></g>
<g><path style="opacity:1" fill="#4831ba" d="M 234.5,256.5 C 233.833,255.5 233.167,254.5 232.5,253.5C 232.993,251.194 233.326,248.861 233.5,246.5C 236.734,246.237 238.068,247.737 237.5,251C 237.884,253.742 236.884,255.575 234.5,256.5 Z"/></g>
<g><path style="opacity:1" fill="#2d204f" d="M 309.5,247.5 C 310.167,247.833 310.833,248.167 311.5,248.5C 314.167,251.5 316.833,254.5 319.5,257.5C 315.167,255.167 311.833,251.833 309.5,247.5 Z"/></g>
<g><path style="opacity:1" fill="#2a223d" d="M 326.5,243.5 C 330.217,246.543 334.217,249.209 338.5,251.5C 337.873,252.417 337.539,253.417 337.5,254.5C 334.167,251.5 330.833,248.5 327.5,245.5C 327.167,244.833 326.833,244.167 326.5,243.5 Z"/></g>
<g><path style="opacity:1" fill="#34267a" d="M 231.5,241.5 C 232.421,242.981 233.588,244.314 235,245.5C 236.03,245.164 236.53,244.497 236.5,243.5C 239.471,246.808 242.471,250.141 245.5,253.5C 243.824,254.183 243.157,255.517 243.5,257.5C 245.39,257.297 246.89,257.963 248,259.5C 248.497,262.146 248.664,264.813 248.5,267.5C 247.5,267.5 246.5,267.5 245.5,267.5C 245.167,266.833 244.833,266.167 244.5,265.5C 242.451,264.118 240.785,262.452 239.5,260.5C 238.374,258.464 236.707,257.13 234.5,256.5C 236.884,255.575 237.884,253.742 237.5,251C 238.068,247.737 236.734,246.237 233.5,246.5C 233.326,248.861 232.993,251.194 232.5,253.5C 230.77,252.974 229.436,251.974 228.5,250.5C 229.931,250.119 230.764,249.119 231,247.5C 231.495,245.527 231.662,243.527 231.5,241.5 Z"/></g>
<g><path style="opacity:1" fill="#392f16" d="M 301.5,249.5 C 303.17,249.751 304.67,250.418 306,251.5C 308.689,255.675 311.523,259.675 314.5,263.5C 309.711,259.255 305.378,254.589 301.5,249.5 Z"/></g>
<g><path style="opacity:1" fill="#4830c3" d="M 239.5,260.5 C 239.5,258.167 239.5,255.833 239.5,253.5C 240.5,253.5 241.5,253.5 242.5,253.5C 242.5,255.833 242.5,258.167 242.5,260.5C 241.5,260.5 240.5,260.5 239.5,260.5 Z"/></g>
<g><path style="opacity:1" fill="#272527" d="M 294.5,239.5 C 299.879,239.83 303.212,242.497 304.5,247.5C 305.5,247.5 306.5,247.5 307.5,247.5C 308.167,247.5 308.833,247.5 309.5,247.5C 311.833,251.833 315.167,255.167 319.5,257.5C 321.43,261.1 324.097,264.1 327.5,266.5C 333.753,274.569 332.42,281.236 323.5,286.5C 323.351,285.448 323.517,284.448 324,283.5C 326.127,281.886 327.627,279.886 328.5,277.5C 328.5,276.833 328.5,276.167 328.5,275.5C 326.854,273.188 324.854,271.188 322.5,269.5C 321.943,267.765 321.61,266.098 321.5,264.5C 320.833,265.167 320.167,265.833 319.5,266.5C 318.274,264.722 316.607,263.722 314.5,263.5C 311.523,259.675 308.689,255.675 306,251.5C 304.67,250.418 303.17,249.751 301.5,249.5C 299.11,248.109 297.443,246.109 296.5,243.5C 296.267,241.938 295.6,240.605 294.5,239.5 Z"/></g>
<g><path style="opacity:1" fill="#322555" d="M 319.5,257.5 C 322.5,259.833 325.167,262.5 327.5,265.5C 327.5,265.833 327.5,266.167 327.5,266.5C 324.097,264.1 321.43,261.1 319.5,257.5 Z"/></g>
<g><path style="opacity:1" fill="#419e96" d="M 346.5,255.5 C 351.116,257.536 355.449,260.036 359.5,263C 358.667,265.081 358.667,267.248 359.5,269.5C 357.861,267.194 355.861,265.194 353.5,263.5C 351.167,260.833 348.833,258.167 346.5,255.5 Z"/></g>
<g><path style="opacity:1" fill="#cececf" d="M 403.5,244.5 C 409.029,251.562 412.363,259.562 413.5,268.5C 413.735,271.812 412.735,272.645 410.5,271C 409.136,262.074 406.469,253.574 402.5,245.5C 402.624,244.893 402.957,244.56 403.5,244.5 Z"/></g>
<g><path style="opacity:1" fill="#4930c3" d="M 244.5,265.5 C 244.201,263.396 244.534,261.396 245.5,259.5C 247.283,261.023 247.949,263.023 247.5,265.5C 246.5,265.5 245.5,265.5 244.5,265.5 Z"/></g>
<g><path style="opacity:1" fill="#2d205d" d="M 245.5,253.5 C 252.473,261.14 259.806,268.473 267.5,275.5C 270.19,277.193 272.19,279.527 273.5,282.5C 273.5,283.167 273.167,283.5 272.5,283.5C 271.833,283.5 271.5,283.167 271.5,282.5C 270.074,281.659 268.74,280.659 267.5,279.5C 264.065,275.562 260.398,271.729 256.5,268C 255.552,267.517 254.552,267.351 253.5,267.5C 253.5,266.5 253.5,265.5 253.5,264.5C 250.09,264.384 248.756,266.05 249.5,269.5C 248.292,268.766 246.959,268.433 245.5,268.5C 245.5,268.167 245.5,267.833 245.5,267.5C 246.5,267.5 247.5,267.5 248.5,267.5C 248.664,264.813 248.497,262.146 248,259.5C 246.89,257.963 245.39,257.297 243.5,257.5C 243.157,255.517 243.824,254.183 245.5,253.5 Z"/></g>
<g><path style="opacity:1" fill="#292623" d="M 251.5,238.5 C 266.197,254.198 281.53,269.198 297.5,283.5C 299.22,286.731 301.553,289.564 304.5,292C 303.437,293.188 302.103,293.688 300.5,293.5C 299.395,292.4 298.062,291.733 296.5,291.5C 294.295,289.637 292.961,287.303 292.5,284.5C 291.167,284.5 289.833,284.5 288.5,284.5C 283.167,277.167 276.833,270.833 269.5,265.5C 264.833,260.5 260.167,255.5 255.5,250.5C 253.407,246.888 252.074,242.888 251.5,238.5 Z"/></g>
<g><path style="opacity:1" fill="#352e1e" d="M 314.5,263.5 C 316.607,263.722 318.274,264.722 319.5,266.5C 320.167,265.833 320.833,265.167 321.5,264.5C 321.61,266.098 321.943,267.765 322.5,269.5C 324.854,271.188 326.854,273.188 328.5,275.5C 326.246,274.585 324.246,273.252 322.5,271.5C 319.5,269.167 316.833,266.5 314.5,263.5 Z"/></g>
<g><path style="opacity:1" fill="#26272b" d="M 211.5,226.5 C 209.661,228.79 209.328,231.123 210.5,233.5C 211.914,235.054 213.581,236.388 215.5,237.5C 215.833,238.167 216.167,238.833 216.5,239.5C 218.477,242.618 220.811,245.452 223.5,248C 224.793,248.49 226.127,248.657 227.5,248.5C 227.328,249.492 227.662,250.158 228.5,250.5C 229.436,251.974 230.77,252.974 232.5,253.5C 233.167,254.5 233.833,255.5 234.5,256.5C 236.707,257.13 238.374,258.464 239.5,260.5C 240.785,262.452 242.451,264.118 244.5,265.5C 244.833,266.167 245.167,266.833 245.5,267.5C 245.5,267.833 245.5,268.167 245.5,268.5C 246.968,269.779 247.635,271.446 247.5,273.5C 246.167,273.5 244.833,273.5 243.5,273.5C 242.167,272.5 240.833,271.5 239.5,270.5C 237.904,267.414 235.571,266.747 232.5,268.5C 229.046,268.733 228.046,267.4 229.5,264.5C 230.739,263.788 231.239,262.788 231,261.5C 223.594,254.598 216.761,247.265 210.5,239.5C 208.666,235.486 207.999,231.153 208.5,226.5C 209.5,226.5 210.5,226.5 211.5,226.5 Z"/></g>
<g><path style="opacity:1" fill="#38296a" d="M 269.5,265.5 C 276.833,270.833 283.167,277.167 288.5,284.5C 283.5,279.833 278.5,275.167 273.5,270.5C 272.167,268.833 270.833,267.167 269.5,265.5 Z"/></g>
<g><path style="opacity:1" fill="#4831b9" d="M 257.5,273.5 C 257.027,274.906 256.027,275.573 254.5,275.5C 254.5,274.833 254.5,274.167 254.5,273.5C 254.238,272.022 254.571,270.689 255.5,269.5C 257.111,270.32 257.778,271.654 257.5,273.5 Z"/></g>
<g><path style="opacity:1" fill="#2e216b" d="M 342.5,262.5 C 346.071,263.929 348.738,266.263 350.5,269.5C 349.185,268.524 347.852,267.524 346.5,266.5C 345.833,269.977 345.166,273.311 344.5,276.5C 344.665,273.482 344.498,270.482 344,267.5C 343.809,269.708 343.309,271.708 342.5,273.5C 342.5,269.833 342.5,266.167 342.5,262.5 Z"/></g>
<g><path style="opacity:1" fill="#482ec4" d="M 350.5,269.5 C 350.013,273.867 349.347,278.201 348.5,282.5C 348.5,284.167 348.5,285.833 348.5,287.5C 348.167,287.5 347.833,287.5 347.5,287.5C 345.821,287.715 344.821,287.048 344.5,285.5C 344.5,282.5 344.5,279.5 344.5,276.5C 345.166,273.311 345.833,269.977 346.5,266.5C 347.852,267.524 349.185,268.524 350.5,269.5 Z"/></g>
<g><path style="opacity:1" fill="#273250" d="M 353.5,263.5 C 355.861,265.194 357.861,267.194 359.5,269.5C 359.5,269.833 359.5,270.167 359.5,270.5C 359.802,273.059 359.468,275.393 358.5,277.5C 358.5,275.5 358.5,273.5 358.5,271.5C 357.167,271.5 355.833,271.5 354.5,271.5C 354.5,271.167 354.5,270.833 354.5,270.5C 355.497,270.53 356.164,270.03 356.5,269C 355.259,267.269 354.259,265.436 353.5,263.5 Z"/></g>
<g><path style="opacity:1" fill="#d0e0de" d="M 397.5,240.5 C 400.292,240.622 402.292,241.956 403.5,244.5C 402.957,244.56 402.624,244.893 402.5,245.5C 406.469,253.574 409.136,262.074 410.5,271C 412.735,272.645 413.735,271.812 413.5,268.5C 414.402,271.997 415.069,275.663 415.5,279.5C 413.203,277.706 411.037,275.706 409,273.5C 408.229,261.351 404.396,250.351 397.5,240.5 Z"/></g>
<g><path style="opacity:1" fill="#3e299c" d="M 350.5,269.5 C 351.959,269.433 353.292,269.766 354.5,270.5C 354.5,270.833 354.5,271.167 354.5,271.5C 354.5,274.167 354.5,276.833 354.5,279.5C 353.596,280.209 353.263,281.209 353.5,282.5C 351.64,281.929 349.973,281.929 348.5,282.5C 349.347,278.201 350.013,273.867 350.5,269.5 Z"/></g>
<g><path style="opacity:1" fill="#467f91" d="M 239.5,270.5 C 240.833,271.5 242.167,272.5 243.5,273.5C 245.5,275.833 247.5,278.167 249.5,280.5C 245.167,278.167 241.833,274.833 239.5,270.5 Z"/></g>
<g><path style="opacity:1" fill="#3a2980" d="M 354.5,271.5 C 355.833,271.5 357.167,271.5 358.5,271.5C 358.5,273.5 358.5,275.5 358.5,277.5C 357.167,278.167 355.833,278.833 354.5,279.5C 354.5,276.833 354.5,274.167 354.5,271.5 Z"/></g>
<g><path style="opacity:1" fill="#262532" d="M 245.5,268.5 C 246.959,268.433 248.292,268.766 249.5,269.5C 249.5,270.5 249.5,271.5 249.5,272.5C 251.292,272.366 252.958,272.699 254.5,273.5C 254.5,274.167 254.5,274.833 254.5,275.5C 255.789,276.637 256.789,277.97 257.5,279.5C 255.834,278.334 254.167,278.334 252.5,279.5C 254.38,280.714 254.713,282.048 253.5,283.5C 252.167,282.5 250.833,281.5 249.5,280.5C 247.5,278.167 245.5,275.833 243.5,273.5C 244.833,273.5 246.167,273.5 247.5,273.5C 247.635,271.446 246.968,269.779 245.5,268.5 Z"/></g>
<g><path style="opacity:1" fill="#6f4ee2" d="M 273.5,270.5 C 278.5,275.167 283.5,279.833 288.5,284.5C 289.833,286.167 291.167,287.833 292.5,289.5C 289.75,288.256 287.417,286.423 285.5,284C 284.552,283.517 283.552,283.351 282.5,283.5C 282.481,285.06 282.148,286.56 281.5,288C 282.741,289.731 283.741,291.564 284.5,293.5C 281.194,289.527 277.527,285.86 273.5,282.5C 272.19,279.527 270.19,277.193 267.5,275.5C 269.482,275.995 271.482,276.495 273.5,277C 273.833,278 274.167,279 274.5,280C 275.448,280.483 276.448,280.649 277.5,280.5C 277.33,279.178 277.663,278.011 278.5,277C 277.552,276.517 276.552,276.351 275.5,276.5C 275.296,274.315 274.63,272.315 273.5,270.5 Z"/></g>
<g><path style="opacity:1" fill="#402ca0" d="M 267.5,279.5 C 268.084,282.285 267.084,283.952 264.5,284.5C 263.833,283.833 263.167,283.167 262.5,282.5C 259.307,280.358 257.64,277.358 257.5,273.5C 257.778,271.654 257.111,270.32 255.5,269.5C 254.571,270.689 254.238,272.022 254.5,273.5C 252.958,272.699 251.292,272.366 249.5,272.5C 249.5,271.5 249.5,270.5 249.5,269.5C 248.756,266.05 250.09,264.384 253.5,264.5C 253.5,265.5 253.5,266.5 253.5,267.5C 254.552,267.351 255.552,267.517 256.5,268C 260.398,271.729 264.065,275.562 267.5,279.5 Z"/></g>
<g><path style="opacity:1" fill="#30245e" d="M 257.5,273.5 C 257.64,277.358 259.307,280.358 262.5,282.5C 261.5,282.5 260.5,282.5 259.5,282.5C 258.833,281.5 258.167,280.5 257.5,279.5C 256.789,277.97 255.789,276.637 254.5,275.5C 256.027,275.573 257.027,274.906 257.5,273.5 Z"/></g>
<g><path style="opacity:1" fill="#5946a9" d="M 341.5,261.5 C 342.167,261.5 342.5,261.833 342.5,262.5C 342.5,266.167 342.5,269.833 342.5,273.5C 341.79,275.746 341.29,278.08 341,280.5C 340.617,281.056 340.117,281.389 339.5,281.5C 341.047,274.942 341.714,268.275 341.5,261.5 Z"/></g>
<g><path style="opacity:1" fill="#2f255d" d="M 358.5,277.5 C 356.888,279.298 355.388,281.298 354,283.5C 351.833,284.488 350,285.821 348.5,287.5C 348.5,285.833 348.5,284.167 348.5,282.5C 349.973,281.929 351.64,281.929 353.5,282.5C 353.263,281.209 353.596,280.209 354.5,279.5C 355.833,278.833 357.167,278.167 358.5,277.5 Z"/></g>
<g><path style="opacity:1" fill="#372782" d="M 267.5,279.5 C 268.74,280.659 270.074,281.659 271.5,282.5C 270.504,282.414 269.671,282.748 269,283.5C 268.506,285.134 268.34,286.801 268.5,288.5C 267.167,287.167 265.833,285.833 264.5,284.5C 267.084,283.952 268.084,282.285 267.5,279.5 Z"/></g>
<g><path style="opacity:1" fill="#5b44aa" d="M 327.5,265.5 C 328.794,266.29 329.961,267.29 331,268.5C 332.363,272.761 332.696,277.095 332,281.5C 327.638,284.697 323.805,288.363 320.5,292.5C 320.167,292.5 319.833,292.5 319.5,292.5C 319.5,292.167 319.5,291.833 319.5,291.5C 320.5,290.167 321.5,288.833 322.5,287.5C 322.5,286.833 322.833,286.5 323.5,286.5C 332.42,281.236 333.753,274.569 327.5,266.5C 327.5,266.167 327.5,265.833 327.5,265.5 Z"/></g>
<g><path style="opacity:1" fill="#704aef" d="M 292.5,289.5 C 292.081,292.325 293.081,294.491 295.5,296C 293.293,297.632 290.96,297.632 288.5,296C 287.529,294.519 286.196,293.685 284.5,293.5C 283.741,291.564 282.741,289.731 281.5,288C 282.148,286.56 282.481,285.06 282.5,283.5C 283.552,283.351 284.552,283.517 285.5,284C 287.417,286.423 289.75,288.256 292.5,289.5 Z"/></g>
<g><path style="opacity:1" fill="#eed175" d="M 322.5,271.5 C 324.246,273.252 326.246,274.585 328.5,275.5C 328.5,276.167 328.5,276.833 328.5,277.5C 322.134,283.534 315.801,289.534 309.5,295.5C 306.145,291.813 302.811,288.147 299.5,284.5C 302.826,284.914 305.659,286.248 308,288.5C 309.221,287.728 310.221,286.728 311,285.5C 311.333,285.833 311.667,286.167 312,286.5C 315.252,284.261 318.752,282.428 322.5,281C 322.043,280.586 321.709,280.086 321.5,279.5C 322.689,278.571 324.022,278.238 325.5,278.5C 324.523,276.179 323.523,273.846 322.5,271.5 Z"/></g>
<g><path style="opacity:1" fill="#452eb1" d="M 271.5,282.5 C 271.5,283.167 271.833,283.5 272.5,283.5C 273.458,284.962 274.624,286.295 276,287.5C 276.946,289.956 276.446,291.956 274.5,293.5C 273.717,291.712 272.384,290.712 270.5,290.5C 269.5,290.167 268.833,289.5 268.5,288.5C 268.34,286.801 268.506,285.134 269,283.5C 269.671,282.748 270.504,282.414 271.5,282.5 Z"/></g>
<g><path style="opacity:1" fill="#272338" d="M 259.5,282.5 C 260.5,282.5 261.5,282.5 262.5,282.5C 263.167,283.167 263.833,283.833 264.5,284.5C 265.833,285.833 267.167,287.167 268.5,288.5C 268.833,289.5 269.5,290.167 270.5,290.5C 270.833,291.167 271.167,291.833 271.5,292.5C 269.059,291.443 266.725,290.11 264.5,288.5C 263.914,288.709 263.414,289.043 263,289.5C 262.751,286.608 261.584,284.275 259.5,282.5 Z"/></g>
<g><path style="opacity:1" fill="#34275c" d="M 288.5,284.5 C 289.833,284.5 291.167,284.5 292.5,284.5C 292.961,287.303 294.295,289.637 296.5,291.5C 294.938,291.267 293.605,290.6 292.5,289.5C 291.167,287.833 289.833,286.167 288.5,284.5 Z"/></g>
<g><path style="opacity:1" fill="#262139" d="M 322.5,287.5 C 321.5,288.833 320.5,290.167 319.5,291.5C 319.167,291.5 318.833,291.5 318.5,291.5C 318.525,288.821 319.858,287.488 322.5,287.5 Z"/></g>
<g><path style="opacity:1" fill="#3b2a88" d="M 344.5,285.5 C 344.821,287.048 345.821,287.715 347.5,287.5C 346.833,290.167 345.167,291.833 342.5,292.5C 342.167,292.5 341.833,292.5 341.5,292.5C 341.768,290.901 341.434,289.568 340.5,288.5C 340.5,287.5 340.5,286.5 340.5,285.5C 341.833,285.5 343.167,285.5 344.5,285.5 Z"/></g>
<g><path style="opacity:1" fill="#6049b8" d="M 338.5,286.5 C 337.154,288.537 335.82,290.537 334.5,292.5C 334.375,289.392 335.708,287.392 338.5,286.5 Z"/></g>
<g><path style="opacity:1" fill="#4d38b5" d="M 340.5,288.5 C 341.434,289.568 341.768,290.901 341.5,292.5C 338.196,298.011 337.029,297.678 338,291.5C 338.852,290.429 339.685,289.429 340.5,288.5 Z"/></g>
<g><path style="opacity:1" fill="#ccefea" d="M 65.5,271.5 C 65.0386,280.292 65.7052,288.959 67.5,297.5C 65.9328,296.319 65.0995,294.653 65,292.5C 63.7802,285.867 63.4469,279.2 64,272.5C 64.3826,271.944 64.8826,271.611 65.5,271.5 Z"/></g>
<g><path style="opacity:1" fill="#2e2152" d="M 296.5,291.5 C 298.062,291.733 299.395,292.4 300.5,293.5C 301.167,294.833 302.167,295.833 303.5,296.5C 304.167,297.5 304.833,298.5 305.5,299.5C 301.9,297.57 298.9,294.903 296.5,291.5 Z"/></g>
<g><path style="opacity:1" fill="#232d2d" d="M 229.5,264.5 C 228.046,267.4 229.046,268.733 232.5,268.5C 220.371,275.274 208.037,281.774 195.5,288C 189.892,291.276 184.558,294.943 179.5,299C 176.029,301.072 172.362,302.572 168.5,303.5C 159.143,303.832 149.81,303.498 140.5,302.5C 142.531,300.69 144.198,298.69 145.5,296.5C 147.035,295.646 148.368,295.646 149.5,296.5C 149.047,297.458 148.381,298.292 147.5,299C 155.579,299.901 163.579,299.568 171.5,298C 190.43,286.038 209.763,274.872 229.5,264.5 Z"/></g>
<g><path style="opacity:1" fill="#2d291c" d="M 328.5,277.5 C 327.627,279.886 326.127,281.886 324,283.5C 323.517,284.448 323.351,285.448 323.5,286.5C 322.833,286.5 322.5,286.833 322.5,287.5C 319.858,287.488 318.525,288.821 318.5,291.5C 317.833,291.833 317.167,292.167 316.5,292.5C 313.564,294.098 310.897,296.098 308.5,298.5C 306.823,297.813 305.156,297.146 303.5,296.5C 302.167,295.833 301.167,294.833 300.5,293.5C 302.103,293.688 303.437,293.188 304.5,292C 301.553,289.564 299.22,286.731 297.5,283.5C 298.167,283.833 298.833,284.167 299.5,284.5C 302.811,288.147 306.145,291.813 309.5,295.5C 315.801,289.534 322.134,283.534 328.5,277.5 Z"/></g>
<g><path style="opacity:1" fill="#32285a" d="M 344.5,276.5 C 344.5,279.5 344.5,282.5 344.5,285.5C 343.167,285.5 341.833,285.5 340.5,285.5C 340.5,286.5 340.5,287.5 340.5,288.5C 339.685,289.429 338.852,290.429 338,291.5C 337.029,297.678 338.196,298.011 341.5,292.5C 341.833,292.5 342.167,292.5 342.5,292.5C 341.189,295.811 338.855,298.145 335.5,299.5C 334.712,302.621 332.712,304.288 329.5,304.5C 328.833,308.5 326.5,310.833 322.5,311.5C 322.727,313.933 321.727,315.599 319.5,316.5C 319.5,316.167 319.5,315.833 319.5,315.5C 321.226,313.18 321.893,310.513 321.5,307.5C 320.167,307.5 318.833,307.5 317.5,307.5C 317.5,308.5 317.5,309.5 317.5,310.5C 312.465,309.887 307.465,309.221 302.5,308.5C 302.167,308.5 301.833,308.5 301.5,308.5C 299.706,307.767 298.039,306.767 296.5,305.5C 296.842,304.662 297.508,304.328 298.5,304.5C 298.833,304.5 299.167,304.5 299.5,304.5C 302.186,305.991 305.186,306.657 308.5,306.5C 310.696,306.495 312.696,306.162 314.5,305.5C 318.701,304.777 322.368,303.11 325.5,300.5C 329.146,298.518 332.146,295.851 334.5,292.5C 335.82,290.537 337.154,288.537 338.5,286.5C 338.629,284.784 338.962,283.117 339.5,281.5C 340.117,281.389 340.617,281.056 341,280.5C 341.29,278.08 341.79,275.746 342.5,273.5C 343.309,271.708 343.809,269.708 344,267.5C 344.498,270.482 344.665,273.482 344.5,276.5 Z"/></g>
<g><path style="opacity:1" fill="#45327e" d="M 318.5,291.5 C 318.833,291.5 319.167,291.5 319.5,291.5C 319.5,291.833 319.5,292.167 319.5,292.5C 316.632,295.688 313.632,298.855 310.5,302C 308.019,302.76 306.353,301.926 305.5,299.5C 307.137,300.218 308.803,300.384 310.5,300C 313.094,297.914 315.094,295.414 316.5,292.5C 317.167,292.167 317.833,291.833 318.5,291.5 Z"/></g>
<g><path style="opacity:1" fill="#5b4ca8" d="M 335.5,299.5 C 334.185,300.476 332.852,301.476 331.5,302.5C 330.953,300.288 331.953,298.621 334.5,297.5C 335.298,297.957 335.631,298.624 335.5,299.5 Z"/></g>
<g><path style="opacity:1" fill="#6e4de1" d="M 292.5,289.5 C 293.605,290.6 294.938,291.267 296.5,291.5C 298.9,294.903 301.9,297.57 305.5,299.5C 306.353,301.926 308.019,302.76 310.5,302C 313.632,298.855 316.632,295.688 319.5,292.5C 319.833,292.5 320.167,292.5 320.5,292.5C 318.009,295.959 315.343,299.292 312.5,302.5C 314.347,303.83 315.847,303.497 317,301.5C 317.725,302.059 318.558,302.392 319.5,302.5C 321.325,301.349 323.325,300.682 325.5,300.5C 322.368,303.11 318.701,304.777 314.5,305.5C 309.463,305.587 304.463,305.254 299.5,304.5C 299.167,304.5 298.833,304.5 298.5,304.5C 293.259,301.596 288.593,297.929 284.5,293.5C 286.196,293.685 287.529,294.519 288.5,296C 290.96,297.632 293.293,297.632 295.5,296C 293.081,294.491 292.081,292.325 292.5,289.5 Z"/></g>
<g><path style="opacity:1" fill="#27222f" d="M 316.5,292.5 C 315.094,295.414 313.094,297.914 310.5,300C 308.803,300.384 307.137,300.218 305.5,299.5C 304.833,298.5 304.167,297.5 303.5,296.5C 305.156,297.146 306.823,297.813 308.5,298.5C 310.897,296.098 313.564,294.098 316.5,292.5 Z"/></g>
<g><path style="opacity:1" fill="#1a3f3a" d="M 145.5,296.5 C 144.198,298.69 142.531,300.69 140.5,302.5C 149.81,303.498 159.143,303.832 168.5,303.5C 158.681,304.494 148.681,304.827 138.5,304.5C 139.369,300.626 141.703,297.959 145.5,296.5 Z"/></g>
<g><path style="opacity:1" fill="#5842a8" d="M 299.5,304.5 C 304.463,305.254 309.463,305.587 314.5,305.5C 312.696,306.162 310.696,306.495 308.5,306.5C 305.186,306.657 302.186,305.991 299.5,304.5 Z"/></g>
<g><path style="opacity:1" fill="#332470" d="M 273.5,282.5 C 277.527,285.86 281.194,289.527 284.5,293.5C 288.593,297.929 293.259,301.596 298.5,304.5C 297.508,304.328 296.842,304.662 296.5,305.5C 294.901,305.232 293.568,305.566 292.5,306.5C 291.539,308.265 291.205,310.265 291.5,312.5C 290.833,311.833 290.167,311.167 289.5,310.5C 287.369,309.341 286.036,307.508 285.5,305C 284.099,304.59 282.766,304.09 281.5,303.5C 278.37,299.513 275.037,295.847 271.5,292.5C 271.167,291.833 270.833,291.167 270.5,290.5C 272.384,290.712 273.717,291.712 274.5,293.5C 276.446,291.956 276.946,289.956 276,287.5C 274.624,286.295 273.458,284.962 272.5,283.5C 273.167,283.5 273.5,283.167 273.5,282.5 Z"/></g>
<g><path style="opacity:1" fill="#4832b6" d="M 287.5,301.5 C 288.5,301.5 289.5,301.5 290.5,301.5C 290.949,303.977 290.283,305.977 288.5,307.5C 287.534,305.604 287.201,303.604 287.5,301.5 Z"/></g>
<g><path style="opacity:1" fill="#4832b5" d="M 283.5,297.5 C 284.649,297.791 285.316,298.624 285.5,300C 285.167,300.833 284.833,301.667 284.5,302.5C 283.548,300.955 283.215,299.288 283.5,297.5 Z"/></g>
<g><path style="opacity:1" fill="#4930be" d="M 277.5,292.5 C 281.068,292.759 282.401,294.759 281.5,298.5C 277.932,298.241 276.599,296.241 277.5,292.5 Z"/></g>
<g><path style="opacity:1" fill="#232826" d="M 257.5,279.5 C 258.167,280.5 258.833,281.5 259.5,282.5C 261.584,284.275 262.751,286.608 263,289.5C 263.414,289.043 263.914,288.709 264.5,288.5C 266.725,290.11 269.059,291.443 271.5,292.5C 275.037,295.847 278.37,299.513 281.5,303.5C 281.5,304.5 281.5,305.5 281.5,306.5C 282.833,306.5 284.167,306.5 285.5,306.5C 285.167,309.5 286.5,310.833 289.5,310.5C 290.167,311.167 290.833,311.833 291.5,312.5C 291.5,312.833 291.5,313.167 291.5,313.5C 291.5,314.5 291.5,315.5 291.5,316.5C 292.675,316.281 293.675,316.614 294.5,317.5C 293.652,319.409 293.318,321.409 293.5,323.5C 279.833,310.5 266.5,297.167 253.5,283.5C 254.713,282.048 254.38,280.714 252.5,279.5C 254.167,278.334 255.834,278.334 257.5,279.5 Z"/></g>
<g><path style="opacity:1" fill="#272236" d="M 281.5,303.5 C 282.766,304.09 284.099,304.59 285.5,305C 286.036,307.508 287.369,309.341 289.5,310.5C 286.5,310.833 285.167,309.5 285.5,306.5C 284.167,306.5 282.833,306.5 281.5,306.5C 281.5,305.5 281.5,304.5 281.5,303.5 Z"/></g>
<g><path style="opacity:1" fill="#5642af" d="M 325.5,303.5 C 326.5,303.5 327.5,303.5 328.5,303.5C 328.405,306.272 327.071,308.272 324.5,309.5C 323.23,307.243 323.564,305.243 325.5,303.5 Z"/></g>
<g><path style="opacity:1" fill="#482fc5" d="M 296.5,305.5 C 296.5,307.833 296.5,310.167 296.5,312.5C 292.932,312.241 291.599,310.241 292.5,306.5C 293.568,305.566 294.901,305.232 296.5,305.5 Z"/></g>
<g><path style="opacity:1" fill="#533fbd" d="M 319.5,315.5 C 317.744,314.448 317.077,312.781 317.5,310.5C 317.5,309.5 317.5,308.5 317.5,307.5C 318.833,307.5 320.167,307.5 321.5,307.5C 321.893,310.513 321.226,313.18 319.5,315.5 Z"/></g>
<g><path style="opacity:1" fill="#4832b8" d="M 313.5,321.5 C 312.833,322.5 312.167,323.5 311.5,324.5C 310.235,323.486 309.569,321.986 309.5,320C 309.916,316.346 311.25,313.18 313.5,310.5C 314.586,314.155 314.586,317.822 313.5,321.5 Z"/></g>
<g><path style="opacity:1" fill="#262430" d="M 291.5,313.5 C 293.117,314.038 294.784,314.371 296.5,314.5C 296.393,316.903 297.393,318.736 299.5,320C 303.216,322.431 307.216,324.264 311.5,325.5C 310.399,326.598 309.066,326.765 307.5,326C 305.043,325.084 302.709,323.917 300.5,322.5C 298.655,323.938 297.489,323.604 297,321.5C 296.29,322.973 295.124,323.64 293.5,323.5C 293.318,321.409 293.652,319.409 294.5,317.5C 293.675,316.614 292.675,316.281 291.5,316.5C 291.5,315.5 291.5,314.5 291.5,313.5 Z"/></g>
<g><path style="opacity:1" fill="#35257f" d="M 296.5,305.5 C 298.039,306.767 299.706,307.767 301.5,308.5C 300.5,308.5 299.5,308.5 298.5,308.5C 298.5,311.5 298.5,314.5 298.5,317.5C 299.5,317.5 300.5,317.5 301.5,317.5C 302.159,314.545 302.492,311.545 302.5,308.5C 307.465,309.221 312.465,309.887 317.5,310.5C 317.077,312.781 317.744,314.448 319.5,315.5C 319.5,315.833 319.5,316.167 319.5,316.5C 317.05,317.711 315.05,319.378 313.5,321.5C 314.586,317.822 314.586,314.155 313.5,310.5C 311.25,313.18 309.916,316.346 309.5,320C 309.569,321.986 310.235,323.486 311.5,324.5C 311.5,324.833 311.5,325.167 311.5,325.5C 307.216,324.264 303.216,322.431 299.5,320C 297.393,318.736 296.393,316.903 296.5,314.5C 294.784,314.371 293.117,314.038 291.5,313.5C 291.5,313.167 291.5,312.833 291.5,312.5C 291.205,310.265 291.539,308.265 292.5,306.5C 291.599,310.241 292.932,312.241 296.5,312.5C 296.5,310.167 296.5,307.833 296.5,305.5 Z"/></g>
<g><path style="opacity:1" fill="#4931bc" d="M 305.5,310.5 C 306.5,310.5 307.5,310.5 308.5,310.5C 308.052,314.524 307.386,318.524 306.5,322.5C 305.054,321.829 304.388,320.662 304.5,319C 305.216,316.208 305.549,313.374 305.5,310.5 Z"/></g>
<g><path style="opacity:1" fill="#492ec8" d="M 301.5,308.5 C 301.833,308.5 302.167,308.5 302.5,308.5C 302.492,311.545 302.159,314.545 301.5,317.5C 300.5,317.5 299.5,317.5 298.5,317.5C 298.5,314.5 298.5,311.5 298.5,308.5C 299.5,308.5 300.5,308.5 301.5,308.5 Z"/></g>
<g><path style="opacity:1" fill="#252238" d="M 319.5,316.5 C 317.502,318.833 316.168,321.5 315.5,324.5C 314.041,324.433 312.708,324.766 311.5,325.5C 311.5,325.167 311.5,324.833 311.5,324.5C 312.167,323.5 312.833,322.5 313.5,321.5C 315.05,319.378 317.05,317.711 319.5,316.5 Z"/></g>
<g><path style="opacity:1" fill="#cccece" d="M 114.5,348.5 C 119.361,350.621 124.361,352.455 129.5,354C 152.852,356.591 175.518,353.924 197.5,346C 199.544,345.502 200.878,344.335 201.5,342.5C 205.976,338.425 210.976,335.092 216.5,332.5C 219.817,331.177 223.15,329.843 226.5,328.5C 229.58,329.201 230.913,330.868 230.5,333.5C 221.034,339.135 211.7,344.969 202.5,351C 195.082,354.105 187.415,356.439 179.5,358C 165.161,358.656 150.828,358.989 136.5,359C 127.93,357.88 120.596,354.38 114.5,348.5 Z"/></g>
<g><path style="opacity:1" fill="#c9e7e2" d="M 107.5,341.5 C 119.212,351.343 132.712,355.009 148,352.5C 166.79,354.008 184.623,350.675 201.5,342.5C 200.878,344.335 199.544,345.502 197.5,346C 175.518,353.924 152.852,356.591 129.5,354C 124.361,352.455 119.361,350.621 114.5,348.5C 111.026,347.271 108.693,344.938 107.5,341.5 Z"/></g>
<g><path style="opacity:1" fill="#242b2b" d="M 359.5,270.5 C 360.645,274.311 360.812,278.311 360,282.5C 357.842,283.826 356.008,285.493 354.5,287.5C 360.354,295.521 367.354,302.354 375.5,308C 398.972,332.227 422.639,356.227 446.5,380C 452,384.833 457.5,389.667 463,394.5C 464.102,399.184 463.436,403.517 461,407.5C 452.524,415.644 444.358,424.144 436.5,433C 434.067,434.632 431.567,436.132 429,437.5C 427.775,437.138 426.609,436.638 425.5,436C 388.04,400.04 351.373,363.206 315.5,325.5C 307.449,333.829 300.116,333.163 293.5,323.5C 295.124,323.64 296.29,322.973 297,321.5C 297.489,323.604 298.655,323.938 300.5,322.5C 302.709,323.917 305.043,325.084 307.5,326C 309.066,326.765 310.399,326.598 311.5,325.5C 312.708,324.766 314.041,324.433 315.5,324.5C 316.168,321.5 317.502,318.833 319.5,316.5C 321.727,315.599 322.727,313.933 322.5,311.5C 326.5,310.833 328.833,308.5 329.5,304.5C 332.712,304.288 334.712,302.621 335.5,299.5C 338.855,298.145 341.189,295.811 342.5,292.5C 345.167,291.833 346.833,290.167 347.5,287.5C 347.833,287.5 348.167,287.5 348.5,287.5C 350,285.821 351.833,284.488 354,283.5C 355.388,281.298 356.888,279.298 358.5,277.5C 359.468,275.393 359.802,273.059 359.5,270.5 Z"/></g>
<g><path style="opacity:1" fill="#cfeafa" d="M 380.5,322.5 C 379.957,322.56 379.624,322.893 379.5,323.5C 380.084,331.266 381.25,338.933 383,346.5C 384.289,340.673 384.956,334.673 385,328.5C 385.333,329.167 385.667,329.833 386,330.5C 386.333,338.167 386.667,345.833 387,353.5C 388.608,356.621 389.441,359.954 389.5,363.5C 390.5,363.5 391.5,363.5 392.5,363.5C 392.629,353.479 392.296,343.479 391.5,333.5C 394.5,335.833 397.167,338.5 399.5,341.5C 398.341,352.993 398.174,364.659 399,376.5C 399.113,381.136 400.279,385.47 402.5,389.5C 404.024,374.087 403.691,358.754 401.5,343.5C 421.146,362.479 440.479,381.812 459.5,401.5C 450.517,412.316 440.684,422.316 430,431.5C 412.944,414.288 395.611,397.288 378,380.5C 359.475,359.645 340.142,339.979 320,321.5C 329.683,310.316 340.183,299.983 351.5,290.5C 353.58,292.993 355.414,295.659 357,298.5C 365.036,306.368 372.869,314.368 380.5,322.5 Z"/></g>
<g><path style="opacity:1" fill="#252f34" d="M 357.5,335.5 C 359.344,336.204 359.844,337.537 359,339.5C 356.318,342.35 353.484,345.016 350.5,347.5C 349.432,345.813 349.599,344.146 351,342.5C 353.372,340.297 355.539,337.963 357.5,335.5 Z"/></g>
<g><path style="opacity:1" fill="#f8fdfc" d="M 399.5,341.5 C 400.5,341.833 401.167,342.5 401.5,343.5C 403.691,358.754 404.024,374.087 402.5,389.5C 400.279,385.47 399.113,381.136 399,376.5C 398.174,364.659 398.341,352.993 399.5,341.5 Z"/></g>
<g><path style="opacity:1" fill="#e9f5f9" d="M 380.5,322.5 C 384.5,325.833 388.167,329.5 391.5,333.5C 392.296,343.479 392.629,353.479 392.5,363.5C 391.5,363.5 390.5,363.5 389.5,363.5C 389.441,359.954 388.608,356.621 387,353.5C 386.667,345.833 386.333,338.167 386,330.5C 385.667,329.833 385.333,329.167 385,328.5C 384.956,334.673 384.289,340.673 383,346.5C 381.25,338.933 380.084,331.266 379.5,323.5C 379.624,322.893 379.957,322.56 380.5,322.5 Z"/></g>
<g><path style="opacity:1" fill="#1f292d" d="M 346.5,324.5 C 348.225,324.843 348.725,325.843 348,327.5C 345.297,330.538 342.297,333.205 339,335.5C 338.333,334.5 338.333,333.5 339,332.5C 341.705,329.964 344.205,327.297 346.5,324.5 Z"/></g>
<g><path style="opacity:1" fill="#273135" d="M 336.5,311.5 C 337.097,311.735 337.43,312.235 337.5,313C 335.084,317.586 331.751,321.419 327.5,324.5C 326.417,323.635 326.251,322.635 327,321.5C 330.371,318.297 333.538,314.964 336.5,311.5 Z"/></g>
<g><path style="opacity:1" fill="#273138" d="M 369.5,347.5 C 370.613,348.946 370.78,350.613 370,352.5C 367.651,355.017 365.151,357.35 362.5,359.5C 361.386,358.277 361.219,356.944 362,355.5C 364.705,352.964 367.205,350.297 369.5,347.5 Z"/></g>
<g><path style="opacity:1" fill="#21282f" d="M 374.5,370.5 C 373.596,369.791 373.263,368.791 373.5,367.5C 375.962,364.536 378.629,361.703 381.5,359C 382.6,358.568 383.267,359.068 383.5,360.5C 381.22,364.448 378.22,367.782 374.5,370.5 Z"/></g>
<g><path style="opacity:1" fill="#d3eeea" d="M 490.5,353.5 C 495.785,356.785 500.118,361.118 503.5,366.5C 507.846,373.198 510.513,380.531 511.5,388.5C 507.457,375.11 500.457,363.443 490.5,353.5 Z"/></g>
<g><path style="opacity:1" fill="#5e707a" d="M 373.5,367.5 C 373.263,368.791 373.596,369.791 374.5,370.5C 373.528,371.751 372.861,371.418 372.5,369.5C 372.543,368.584 372.876,367.917 373.5,367.5 Z"/></g>
<g><path style="opacity:1" fill="#cedcd9" d="M 257.5,356.5 C 268.892,368.04 282.559,375.54 298.5,379C 300.041,380.371 301.375,381.871 302.5,383.5C 295.738,384.395 289.405,382.895 283.5,379C 274.427,373.424 266.093,366.924 258.5,359.5C 257.873,358.583 257.539,357.583 257.5,356.5 Z"/></g>
<g><path style="opacity:1" fill="#283337" d="M 393.5,370.5 C 395.344,371.204 395.844,372.537 395,374.5C 392.142,378.214 388.642,380.88 384.5,382.5C 384.351,381.448 384.517,380.448 385,379.5C 388.038,376.631 390.871,373.631 393.5,370.5 Z"/></g>
<g><path style="opacity:1" fill="#cdcecd" d="M 503.5,366.5 C 516.667,381.799 521.167,399.465 517,419.5C 514.119,427.593 510.453,435.26 506,442.5C 494.498,453.669 483.331,465.169 472.5,477C 453.495,491.924 432.828,494.924 410.5,486C 407.645,483.969 404.978,481.803 402.5,479.5C 419.686,488.571 437.02,488.738 454.5,480C 459.435,477.394 464.102,474.394 468.5,471C 478.358,460.143 488.525,449.643 499,439.5C 511.038,424.681 515.205,408.014 511.5,389.5C 511.5,389.167 511.5,388.833 511.5,388.5C 510.513,380.531 507.846,373.198 503.5,366.5 Z"/></g>
<g><path style="opacity:1" fill="#cde9e4" d="M 511.5,389.5 C 515.205,408.014 511.038,424.681 499,439.5C 488.525,449.643 478.358,460.143 468.5,471C 464.102,474.394 459.435,477.394 454.5,480C 437.02,488.738 419.686,488.571 402.5,479.5C 397.732,476.58 393.066,473.414 388.5,470C 386.563,467.914 384.896,465.748 383.5,463.5C 390.009,468.502 396.675,473.335 403.5,478C 408.172,480.837 413.172,482.837 418.5,484C 442.585,486.209 462.418,478.042 478,459.5C 486.647,450.516 494.98,441.182 503,431.5C 510.45,418.478 513.283,404.478 511.5,389.5 Z"/></g>
</svg>
