<?xml version="1.0" encoding="UTF-8"?>
<!DOCTYPE svg PUBLIC "-//W3C//DTD SVG 1.1//EN" "http://www.w3.org/Graphics/SVG/1.1/DTD/svg11.dtd">
<svg xmlns="http://www.w3.org/2000/svg" version="1.1" width="256px" height="256px" style="shape-rendering:geometricPrecision; text-rendering:geometricPrecision; image-rendering:optimizeQuality; fill-rule:evenodd; clip-rule:evenodd" xmlns:xlink="http://www.w3.org/1999/xlink">
<g><path style="opacity:0.976" fill="#3c87d0" d="M 53.5,-0.5 C 108.5,-0.5 163.5,-0.5 218.5,-0.5C 220.475,0.646381 221.975,2.31305 223,4.5C 223.667,80.5 223.667,156.5 223,232.5C 221.833,235 220,236.833 217.5,238C 213.514,238.499 209.514,238.666 205.5,238.5C 205.667,166.833 205.5,95.1659 205,23.5C 203.833,21 202,19.1667 199.5,18C 193.175,17.5005 186.842,17.3338 180.5,17.5C 136.663,17.832 92.9968,17.4987 49.5,16.5C 49.3345,12.4862 49.5012,8.48617 50,4.5C 50.9973,2.67694 52.1639,1.01027 53.5,-0.5 Z"/></g>
<g><path style="opacity:0.994" fill="#c7edfc" d="M 49.5,16.5 C 92.9968,17.4987 136.663,17.832 180.5,17.5C 182.807,18.9774 184.64,20.9774 186,23.5C 186.829,44.6707 186.663,65.6707 185.5,86.5C 167.24,85.3476 148.907,85.181 130.5,86C 129.167,88 129.167,90 130.5,92C 148.5,92.6667 166.5,92.6667 184.5,92C 185.056,91.6174 185.389,91.1174 185.5,90.5C 186.833,100.5 186.833,110.5 185.5,120.5C 164.671,119.337 143.671,119.171 122.5,120C 121.511,132.42 121.178,144.92 121.5,157.5C 131.645,158.832 142.145,159.499 153,159.5C 163.672,159.5 174.172,159.167 184.5,158.5C 185.167,158.5 185.5,158.167 185.5,157.5C 186.664,187.664 186.831,217.997 186,248.5C 184.982,252.015 182.815,254.348 179.5,255.5C 131.833,255.5 84.1667,255.5 36.5,255.5C 34.525,254.354 33.025,252.687 32,250.5C 31.3333,174.5 31.3333,98.5 32,22.5C 33.1667,20 35,18.1667 37.5,17C 41.4862,16.5012 45.4862,16.3345 49.5,16.5 Z"/></g>
<g><path style="opacity:1" fill="#b1d8fc" d="M 180.5,17.5 C 186.842,17.3338 193.175,17.5005 199.5,18C 202,19.1667 203.833,21 205,23.5C 205.5,95.1659 205.667,166.833 205.5,238.5C 207.158,244.87 205.824,250.536 201.5,255.5C 194.167,255.5 186.833,255.5 179.5,255.5C 182.815,254.348 184.982,252.015 186,248.5C 186.831,217.997 186.664,187.664 185.5,157.5C 185.5,145.167 185.5,132.833 185.5,120.5C 186.833,110.5 186.833,100.5 185.5,90.5C 185.5,89.1667 185.5,87.8333 185.5,86.5C 186.663,65.6707 186.829,44.6707 186,23.5C 184.64,20.9774 182.807,18.9774 180.5,17.5 Z"/></g>
<g><path style="opacity:1" fill="#ed6362" d="M 84.5,37.5 C 105.195,38.8621 116.195,49.8621 117.5,70.5C 106.5,70.5 95.5,70.5 84.5,70.5C 84.5,59.5 84.5,48.5 84.5,37.5 Z"/></g>
<g><path style="opacity:1" fill="#fda95d" d="M 84.5,37.5 C 84.5,48.5 84.5,59.5 84.5,70.5C 95.5,70.5 106.5,70.5 117.5,70.5C 114.527,93.9656 101.194,104.799 77.5,103C 63.5051,99.5478 55.0051,90.7144 52,76.5C 49.9633,52.7078 60.7966,39.7078 84.5,37.5 Z"/></g>
<g><path style="opacity:1" fill="#415c5c" d="M 130.5,51.5 C 148.503,51.3334 166.503,51.5001 184.5,52C 185.833,54 185.833,56 184.5,58C 166.5,58.6667 148.5,58.6667 130.5,58C 129.232,55.8368 129.232,53.6702 130.5,51.5 Z"/></g>
<g><path style="opacity:1" fill="#415d5d" d="M 130.5,68.5 C 148.503,68.3334 166.503,68.5001 184.5,69C 185.833,71 185.833,73 184.5,75C 166.5,75.6667 148.5,75.6667 130.5,75C 129.232,72.8368 129.232,70.6702 130.5,68.5 Z"/></g>
<g><path style="opacity:1" fill="#435e5f" d="M 185.5,86.5 C 185.5,87.8333 185.5,89.1667 185.5,90.5C 185.389,91.1174 185.056,91.6174 184.5,92C 166.5,92.6667 148.5,92.6667 130.5,92C 129.167,90 129.167,88 130.5,86C 148.907,85.181 167.24,85.3476 185.5,86.5 Z"/></g>
<g><path style="opacity:1" fill="#ed6161" d="M 185.5,120.5 C 185.5,132.833 185.5,145.167 185.5,157.5C 185.5,158.167 185.167,158.5 184.5,158.5C 163.424,158.821 142.424,158.488 121.5,157.5C 121.178,144.92 121.511,132.42 122.5,120C 143.671,119.171 164.671,119.337 185.5,120.5 Z"/></g>
<g><path style="opacity:1" fill="#435e5f" d="M 52.5,127.5 C 70.5031,127.333 88.5031,127.5 106.5,128C 107.833,130 107.833,132 106.5,134C 88.8333,134.667 71.1667,134.667 53.5,134C 51.3162,132.102 50.9829,129.936 52.5,127.5 Z"/></g>
<g><path style="opacity:1" fill="#435f60" d="M 107.5,145.5 C 107.714,147.144 107.38,148.644 106.5,150C 88.8365,150.5 71.1698,150.667 53.5,150.5C 51.3131,148.718 50.9797,146.552 52.5,144C 70.5,143.333 88.5,143.333 106.5,144C 107.056,144.383 107.389,144.883 107.5,145.5 Z"/></g>
<g><path style="opacity:1" fill="#87a8b0" d="M 107.5,145.5 C 108.807,147.223 108.807,149.057 107.5,151C 89.3286,151.829 71.3286,151.662 53.5,150.5C 71.1698,150.667 88.8365,150.5 106.5,150C 107.38,148.644 107.714,147.144 107.5,145.5 Z"/></g>
<g><path style="opacity:1" fill="#d0cdd8" d="M 121.5,157.5 C 142.424,158.488 163.424,158.821 184.5,158.5C 174.172,159.167 163.672,159.5 153,159.5C 142.145,159.499 131.645,158.832 121.5,157.5 Z"/></g>
<g><path style="opacity:1" fill="#fd7908" d="M 52.5,172.5 C 57.0986,172.2 61.5986,172.533 66,173.5C 66.6667,191.833 66.6667,210.167 66,228.5C 61.2633,229.469 56.43,229.803 51.5,229.5C 51.18,210.424 51.5133,191.424 52.5,172.5 Z"/></g>
<g><path style="opacity:1" fill="#4a6667" d="M 134.5,178.5 C 150.837,178.333 167.17,178.5 183.5,179C 186.167,181.333 186.167,183.667 183.5,186C 167.167,186.667 150.833,186.667 134.5,186C 131.914,183.506 131.914,181.006 134.5,178.5 Z"/></g>
<g><path style="opacity:1" fill="#fd983a" d="M 93.5,186.5 C 94.4818,200.421 94.8151,214.421 94.5,228.5C 89.7663,229.824 84.9329,229.824 80,228.5C 79.3333,214.833 79.3333,201.167 80,187.5C 84.4014,186.533 88.9014,186.2 93.5,186.5 Z"/></g>
<g><path style="opacity:1" fill="#dcceb3" d="M 93.5,186.5 C 94.8304,193.133 95.4971,200.133 95.5,207.5C 95.4997,214.675 95.1663,221.675 94.5,228.5C 94.8151,214.421 94.4818,200.421 93.5,186.5 Z"/></g>
<g><path style="opacity:1" fill="#415c5d" d="M 134.5,196.5 C 151.17,196.333 167.837,196.5 184.5,197C 185.833,199 185.833,201 184.5,203C 167.5,203.667 150.5,203.667 133.5,203C 132.144,200.586 132.478,198.419 134.5,196.5 Z"/></g>
<g><path style="opacity:1" fill="#fda95e" d="M 109.5,203.5 C 113.846,203.334 118.179,203.501 122.5,204C 123.833,212.333 123.833,220.667 122.5,229C 117.845,229.499 113.179,229.666 108.5,229.5C 108.197,220.749 108.53,212.082 109.5,203.5 Z"/></g>
<g><path style="opacity:1" fill="#425e5e" d="M 133.5,214.5 C 150.503,214.333 167.503,214.5 184.5,215C 185.833,217 185.833,219 184.5,221C 167.833,221.667 151.167,221.667 134.5,221C 132.316,219.102 131.983,216.936 133.5,214.5 Z"/></g>
</svg>
