<?xml version="1.0" encoding="UTF-8"?>
<!DOCTYPE svg PUBLIC "-//W3C//DTD SVG 1.1//EN" "http://www.w3.org/Graphics/SVG/1.1/DTD/svg11.dtd">
<svg xmlns="http://www.w3.org/2000/svg" version="1.1" width="512px" height="512px" style="shape-rendering:geometricPrecision; text-rendering:geometricPrecision; image-rendering:optimizeQuality; fill-rule:evenodd; clip-rule:evenodd" xmlns:xlink="http://www.w3.org/1999/xlink">
<g><path style="opacity:0.997" fill="#3d87d0" d="M 112.5,-0.5 C 219.833,-0.5 327.167,-0.5 434.5,-0.5C 437.021,1.01922 439.521,2.68589 442,4.5C 443.586,6.67047 444.92,9.00381 446,11.5C 446.667,162.167 446.667,312.833 446,463.5C 444.231,468.935 440.731,472.768 435.5,475C 427.571,476.363 419.571,476.863 411.5,476.5C 410.667,333.667 410.167,190.667 410,47.5C 407.5,42.3333 403.667,38.5 398.5,36C 385.171,35.5001 371.837,35.3334 358.5,35.5C 272.096,35.8305 185.763,35.4971 99.5,34.5C 98.9197,25.6689 99.7531,17.0022 102,8.5C 104.505,4.18881 108.005,1.18881 112.5,-0.5 Z"/></g>
<g><path style="opacity:0.999" fill="#c7eefd" d="M 99.5,34.5 C 185.763,35.4971 272.096,35.8305 358.5,35.5C 364.634,37.457 369.134,41.457 372,47.5C 372.5,67.4972 372.667,87.4972 372.5,107.5C 371.038,106.542 369.705,105.376 368.5,104C 333.167,103.333 297.833,103.333 262.5,104C 257.192,108.429 257.192,112.763 262.5,117C 297.833,117.667 333.167,117.667 368.5,117C 370.35,116.31 371.684,115.144 372.5,113.5C 372.827,122.682 372.493,131.682 371.5,140.5C 370.942,139.21 369.942,138.377 368.5,138C 332.833,137.333 297.167,137.333 261.5,138C 257.354,142.625 257.687,146.959 262.5,151C 297.5,151.667 332.5,151.667 367.5,151C 369.687,149.975 371.354,148.475 372.5,146.5C 372.5,155.833 372.5,165.167 372.5,174.5C 370.99,173.164 369.323,171.997 367.5,171C 332.5,170.333 297.5,170.333 262.5,171C 257.014,176.081 257.347,180.748 263.5,185C 298.167,185.667 332.833,185.667 367.5,185C 369.093,184.051 370.426,182.885 371.5,181.5C 372.497,201.326 372.83,221.326 372.5,241.5C 371.711,241.217 371.044,240.717 370.5,240C 328.833,239.333 287.167,239.333 245.5,240C 245,240.5 244.5,241 244,241.5C 243.333,266.167 243.333,290.833 244,315.5C 244.5,316 245,316.5 245.5,317C 287.167,317.667 328.833,317.667 370.5,317C 371.044,316.283 371.711,315.783 372.5,315.5C 372.5,331.167 372.5,346.833 372.5,362.5C 371.684,360.856 370.35,359.69 368.5,359C 335.5,358.333 302.5,358.333 269.5,359C 264.179,363.285 264.179,367.619 269.5,372C 302.5,372.667 335.5,372.667 368.5,372C 369.705,370.624 371.038,369.458 372.5,368.5C 372.5,378.167 372.5,387.833 372.5,397.5C 370.99,396.164 369.323,394.997 367.5,394C 334.833,393.333 302.167,393.333 269.5,394C 264.192,398.429 264.192,402.763 269.5,407C 302.5,407.667 335.5,407.667 368.5,407C 369.942,406.623 370.942,405.79 371.5,404.5C 372.833,413.833 372.833,423.167 371.5,432.5C 370.657,430.827 369.324,429.66 367.5,429C 335.167,428.333 302.833,428.333 270.5,429C 263.833,433.667 263.833,438.333 270.5,443C 302.833,443.667 335.167,443.667 367.5,443C 369.687,441.975 371.354,440.475 372.5,438.5C 372.667,458.503 372.5,478.503 372,498.5C 369.558,505.112 365.058,509.445 358.5,511.5C 264.5,511.5 170.5,511.5 76.5,511.5C 73.9795,509.981 71.4795,508.314 69,506.5C 67.4138,504.33 66.0804,501.996 65,499.5C 64.3333,348.833 64.3333,198.167 65,47.5C 66.7425,42.0896 70.2425,38.2563 75.5,36C 83.4295,34.6367 91.4295,34.1367 99.5,34.5 Z"/></g>
<g><path style="opacity:1" fill="#b3dafd" d="M 358.5,35.5 C 371.837,35.3334 385.171,35.5001 398.5,36C 403.667,38.5 407.5,42.3333 410,47.5C 410.167,190.667 410.667,333.667 411.5,476.5C 412.08,485.331 411.247,493.998 409,502.5C 406.495,506.811 402.995,509.811 398.5,511.5C 385.167,511.5 371.833,511.5 358.5,511.5C 365.058,509.445 369.558,505.112 372,498.5C 372.5,478.503 372.667,458.503 372.5,438.5C 372.675,436.379 372.341,434.379 371.5,432.5C 372.833,423.167 372.833,413.833 371.5,404.5C 372.369,402.283 372.702,399.95 372.5,397.5C 372.5,387.833 372.5,378.167 372.5,368.5C 372.5,366.5 372.5,364.5 372.5,362.5C 372.5,346.833 372.5,331.167 372.5,315.5C 372.5,290.833 372.5,266.167 372.5,241.5C 372.83,221.326 372.497,201.326 371.5,181.5C 372.369,179.283 372.702,176.95 372.5,174.5C 372.5,165.167 372.5,155.833 372.5,146.5C 372.675,144.379 372.341,142.379 371.5,140.5C 372.493,131.682 372.827,122.682 372.5,113.5C 372.5,111.5 372.5,109.5 372.5,107.5C 372.667,87.4972 372.5,67.4972 372,47.5C 369.134,41.457 364.634,37.457 358.5,35.5 Z"/></g>
<g><path style="opacity:1" fill="#fda95c" d="M 169.5,74.5 C 169.5,96.5 169.5,118.5 169.5,140.5C 191.327,141.497 213.327,141.831 235.5,141.5C 235.5,143.833 235.5,146.167 235.5,148.5C 231.392,176.444 216.058,195.278 189.5,205C 152.481,213.401 125.314,200.901 108,167.5C 95.9493,132.987 104.783,105.154 134.5,84C 145.311,77.6057 156.978,74.4391 169.5,74.5 Z"/></g>
<g><path style="opacity:1" fill="#ed6161" d="M 169.5,74.5 C 206.631,77.3006 228.631,96.9672 235.5,133.5C 235.5,135.833 235.5,138.167 235.5,140.5C 213.5,140.5 191.5,140.5 169.5,140.5C 169.5,118.5 169.5,96.5 169.5,74.5 Z"/></g>
<g><path style="opacity:1" fill="#3e5959" d="M 372.5,107.5 C 372.5,109.5 372.5,111.5 372.5,113.5C 371.684,115.144 370.35,116.31 368.5,117C 333.167,117.667 297.833,117.667 262.5,117C 257.192,112.763 257.192,108.429 262.5,104C 297.833,103.333 333.167,103.333 368.5,104C 369.705,105.376 371.038,106.542 372.5,107.5 Z"/></g>
<g><path style="opacity:1" fill="#3f5a5a" d="M 371.5,140.5 C 372.341,142.379 372.675,144.379 372.5,146.5C 371.354,148.475 369.687,149.975 367.5,151C 332.5,151.667 297.5,151.667 262.5,151C 257.687,146.959 257.354,142.625 261.5,138C 297.167,137.333 332.833,137.333 368.5,138C 369.942,138.377 370.942,139.21 371.5,140.5 Z"/></g>
<g><path style="opacity:1" fill="#ea9d89" d="M 235.5,133.5 C 236.833,138.5 236.833,143.5 235.5,148.5C 235.5,146.167 235.5,143.833 235.5,141.5C 213.327,141.831 191.327,141.497 169.5,140.5C 191.5,140.5 213.5,140.5 235.5,140.5C 235.5,138.167 235.5,135.833 235.5,133.5 Z"/></g>
<g><path style="opacity:1" fill="#435e5f" d="M 372.5,174.5 C 372.702,176.95 372.369,179.283 371.5,181.5C 370.426,182.885 369.093,184.051 367.5,185C 332.833,185.667 298.167,185.667 263.5,185C 257.347,180.748 257.014,176.081 262.5,171C 297.5,170.333 332.5,170.333 367.5,171C 369.323,171.997 370.99,173.164 372.5,174.5 Z"/></g>
<g><path style="opacity:1" fill="#ed6161" d="M 372.5,241.5 C 372.5,266.167 372.5,290.833 372.5,315.5C 371.711,315.783 371.044,316.283 370.5,317C 328.833,317.667 287.167,317.667 245.5,317C 245,316.5 244.5,316 244,315.5C 243.333,290.833 243.333,266.167 244,241.5C 244.5,241 245,240.5 245.5,240C 287.167,239.333 328.833,239.333 370.5,240C 371.044,240.717 371.711,241.217 372.5,241.5 Z"/></g>
<g><path style="opacity:1" fill="#3e5959" d="M 106.5,254.5 C 141.502,254.333 176.502,254.5 211.5,255C 216.626,257.553 217.793,261.386 215,266.5C 214.25,267.126 213.416,267.626 212.5,268C 177.167,268.667 141.833,268.667 106.5,268C 101.209,263.55 101.209,259.05 106.5,254.5 Z"/></g>
<g><path style="opacity:1" fill="#3e5959" d="M 106.5,288.5 C 141.835,288.333 177.168,288.5 212.5,289C 216.559,291.467 217.559,294.967 215.5,299.5C 214.335,300.584 213.002,301.417 211.5,302C 176.5,302.667 141.5,302.667 106.5,302C 101.209,297.423 101.209,292.923 106.5,288.5 Z"/></g>
<g><path style="opacity:1" fill="#fd7909" d="M 105.5,345.5 C 113.84,345.334 122.173,345.5 130.5,346C 131.333,346.833 132.167,347.667 133,348.5C 133.667,384.5 133.667,420.5 133,456.5C 132.5,458.333 131.333,459.5 129.5,460C 121.5,460.667 113.5,460.667 105.5,460C 104.667,459.167 103.833,458.333 103,457.5C 102.333,421.167 102.333,384.833 103,348.5C 104.045,347.627 104.878,346.627 105.5,345.5 Z"/></g>
<g><path style="opacity:1" fill="#3e5959" d="M 372.5,362.5 C 372.5,364.5 372.5,366.5 372.5,368.5C 371.038,369.458 369.705,370.624 368.5,372C 335.5,372.667 302.5,372.667 269.5,372C 264.179,367.619 264.179,363.285 269.5,359C 302.5,358.333 335.5,358.333 368.5,359C 370.35,359.69 371.684,360.856 372.5,362.5 Z"/></g>
<g><path style="opacity:1" fill="#fd983b" d="M 161.5,373.5 C 170.173,373.334 178.84,373.5 187.5,374C 188.667,374.5 189.5,375.333 190,376.5C 190.667,403.167 190.667,429.833 190,456.5C 189.535,457.931 188.701,459.097 187.5,460C 179.167,460.667 170.833,460.667 162.5,460C 161.667,459.167 160.833,458.333 160,457.5C 159.333,430.167 159.333,402.833 160,375.5C 160.717,374.956 161.217,374.289 161.5,373.5 Z"/></g>
<g><path style="opacity:1" fill="#3e5a5a" d="M 372.5,397.5 C 372.702,399.95 372.369,402.283 371.5,404.5C 370.942,405.79 369.942,406.623 368.5,407C 335.5,407.667 302.5,407.667 269.5,407C 264.192,402.763 264.192,398.429 269.5,394C 302.167,393.333 334.833,393.333 367.5,394C 369.323,394.997 370.99,396.164 372.5,397.5 Z"/></g>
<g><path style="opacity:1" fill="#fdaa5f" d="M 219.5,407.5 C 227.84,407.334 236.173,407.5 244.5,408C 245.333,408.833 246.167,409.667 247,410.5C 247.667,426.167 247.667,441.833 247,457.5C 246.167,458.333 245.333,459.167 244.5,460C 236.167,460.667 227.833,460.667 219.5,460C 218.667,459.167 217.833,458.333 217,457.5C 216.333,441.833 216.333,426.167 217,410.5C 218.045,409.627 218.878,408.627 219.5,407.5 Z"/></g>
<g><path style="opacity:1" fill="#435e5f" d="M 371.5,432.5 C 372.341,434.379 372.675,436.379 372.5,438.5C 371.354,440.475 369.687,441.975 367.5,443C 335.167,443.667 302.833,443.667 270.5,443C 263.833,438.333 263.833,433.667 270.5,429C 302.833,428.333 335.167,428.333 367.5,429C 369.324,429.66 370.657,430.827 371.5,432.5 Z"/></g>
</svg>
