<?xml version="1.0" encoding="UTF-8"?>
<!DOCTYPE svg PUBLIC "-//W3C//DTD SVG 1.1//EN" "http://www.w3.org/Graphics/SVG/1.1/DTD/svg11.dtd">
<svg xmlns="http://www.w3.org/2000/svg" version="1.1" width="384px" height="384px" style="shape-rendering:geometricPrecision; text-rendering:geometricPrecision; image-rendering:optimizeQuality; fill-rule:evenodd; clip-rule:evenodd" xmlns:xlink="http://www.w3.org/1999/xlink">
<g><path style="opacity:0.978" fill="#3d88d0" d="M 82.5,-0.5 C 164.167,-0.5 245.833,-0.5 327.5,-0.5C 331.287,1.79717 333.787,5.13051 335,9.5C 335.667,122.167 335.667,234.833 335,347.5C 333.167,352 330,355.167 325.5,357C 319.843,357.499 314.176,357.666 308.5,357.5C 307.669,250.236 307.169,142.903 307,35.5C 305.526,31.3592 302.693,28.5259 298.5,27C 288.839,26.5002 279.172,26.3335 269.5,26.5C 204.331,26.8325 139.331,26.4991 74.5,25.5C 74.3339,19.8236 74.5006,14.1569 75,8.5C 76.6416,4.69966 79.1416,1.69966 82.5,-0.5 Z"/></g>
<g><path style="opacity:0.994" fill="#c7edfc" d="M 74.5,25.5 C 139.331,26.4991 204.331,26.8325 269.5,26.5C 273.578,28.47 276.744,31.47 279,35.5C 279.5,50.4963 279.667,65.4963 279.5,80.5C 278.373,79.8783 277.373,79.045 276.5,78C 249.833,77.3333 223.167,77.3333 196.5,78C 192.633,81.2488 192.633,84.5821 196.5,88C 222.833,88.6667 249.167,88.6667 275.5,88C 277.35,87.3103 278.684,86.1436 279.5,84.5C 279.5,91.5 279.5,98.5 279.5,105.5C 278.373,104.878 277.373,104.045 276.5,103C 249.833,102.333 223.167,102.333 196.5,103C 192.5,106.333 192.5,109.667 196.5,113C 222.833,113.667 249.167,113.667 275.5,113C 276.984,112.338 278.317,111.504 279.5,110.5C 279.5,117.167 279.5,123.833 279.5,130.5C 278.317,129.496 276.984,128.662 275.5,128C 249.167,127.333 222.833,127.333 196.5,128C 192.5,131.333 192.5,134.667 196.5,138C 223.167,138.667 249.833,138.667 276.5,138C 277.373,136.955 278.373,136.122 279.5,135.5C 279.5,150.833 279.5,166.167 279.5,181.5C 278.711,181.217 278.044,180.717 277.5,180C 246.167,179.333 214.833,179.333 183.5,180C 182.84,189.425 182.506,198.925 182.5,208.5C 182.512,218.212 182.845,227.878 183.5,237.5C 214.828,238.667 246.161,238.833 277.5,238C 278.044,237.283 278.711,236.783 279.5,236.5C 279.5,248.167 279.5,259.833 279.5,271.5C 278.5,270.833 277.5,270.167 276.5,269.5C 251.67,268.337 226.67,268.17 201.5,269C 200.944,269.383 200.611,269.883 200.5,270.5C 199.114,273.393 199.448,276.226 201.5,279C 226.167,279.667 250.833,279.667 275.5,279C 276.984,278.338 278.317,277.504 279.5,276.5C 279.825,283.687 279.491,290.687 278.5,297.5C 278.082,296.778 277.416,296.278 276.5,296C 251.5,295.333 226.5,295.333 201.5,296C 198.833,299 198.833,302 201.5,305C 226.5,305.667 251.5,305.667 276.5,305C 277.373,303.955 278.373,303.122 279.5,302.5C 279.5,309.833 279.5,317.167 279.5,324.5C 278.5,323.833 277.5,323.167 276.5,322.5C 251.67,321.337 226.67,321.17 201.5,322C 200.944,322.383 200.611,322.883 200.5,323.5C 199.114,326.393 199.448,329.226 201.5,332C 226.167,332.667 250.833,332.667 275.5,332C 276.984,331.338 278.317,330.504 279.5,329.5C 279.667,344.17 279.5,358.837 279,373.5C 276.978,378.02 273.811,381.353 269.5,383.5C 198.167,383.5 126.833,383.5 55.5,383.5C 51.7133,381.203 49.2133,377.869 48,373.5C 47.3333,260.833 47.3333,148.167 48,35.5C 49.8333,31 53,27.8333 57.5,26C 63.1569,25.5006 68.8236,25.3339 74.5,25.5 Z"/></g>
<g><path style="opacity:1" fill="#b3dafd" d="M 269.5,26.5 C 279.172,26.3335 288.839,26.5002 298.5,27C 302.693,28.5259 305.526,31.3592 307,35.5C 307.169,142.903 307.669,250.236 308.5,357.5C 310.157,364.757 309.324,371.757 306,378.5C 304.27,380.402 302.437,382.069 300.5,383.5C 290.167,383.5 279.833,383.5 269.5,383.5C 273.811,381.353 276.978,378.02 279,373.5C 279.5,358.837 279.667,344.17 279.5,329.5C 279.5,327.833 279.5,326.167 279.5,324.5C 279.5,317.167 279.5,309.833 279.5,302.5C 279.634,300.708 279.301,299.042 278.5,297.5C 279.491,290.687 279.825,283.687 279.5,276.5C 279.5,274.833 279.5,273.167 279.5,271.5C 279.5,259.833 279.5,248.167 279.5,236.5C 279.5,218.167 279.5,199.833 279.5,181.5C 279.5,166.167 279.5,150.833 279.5,135.5C 279.5,133.833 279.5,132.167 279.5,130.5C 279.5,123.833 279.5,117.167 279.5,110.5C 279.5,108.833 279.5,107.167 279.5,105.5C 279.5,98.5 279.5,91.5 279.5,84.5C 279.5,83.1667 279.5,81.8333 279.5,80.5C 279.667,65.4963 279.5,50.4963 279,35.5C 276.744,31.47 273.578,28.47 269.5,26.5 Z"/></g>
<g><path style="opacity:1" fill="#fda95d" d="M 126.5,55.5 C 126.17,72.3417 126.503,89.0084 127.5,105.5C 143.833,105.5 160.167,105.5 176.5,105.5C 172.771,140.729 153.105,157.229 117.5,155C 98.3849,150.554 85.5516,139.054 79,120.5C 72.9165,91.1662 83.4165,70.3329 110.5,58C 115.686,56.2154 121.02,55.3821 126.5,55.5 Z"/></g>
<g><path style="opacity:1" fill="#f1886c" d="M 126.5,55.5 C 128.735,55.2053 130.735,55.5386 132.5,56.5C 130.833,56.5 129.167,56.5 127.5,56.5C 127.5,72.8333 127.5,89.1667 127.5,105.5C 126.503,89.0084 126.17,72.3417 126.5,55.5 Z"/></g>
<g><path style="opacity:1" fill="#ed6261" d="M 132.5,56.5 C 153.28,59.4352 167.446,70.7686 175,90.5C 176.16,95.4342 176.66,100.434 176.5,105.5C 160.167,105.5 143.833,105.5 127.5,105.5C 127.5,89.1667 127.5,72.8333 127.5,56.5C 129.167,56.5 130.833,56.5 132.5,56.5 Z"/></g>
<g><path style="opacity:1" fill="#435e5f" d="M 279.5,80.5 C 279.5,81.8333 279.5,83.1667 279.5,84.5C 278.684,86.1436 277.35,87.3103 275.5,88C 249.167,88.6667 222.833,88.6667 196.5,88C 192.633,84.5821 192.633,81.2488 196.5,78C 223.167,77.3333 249.833,77.3333 276.5,78C 277.373,79.045 278.373,79.8783 279.5,80.5 Z"/></g>
<g><path style="opacity:1" fill="#435e5f" d="M 279.5,105.5 C 279.5,107.167 279.5,108.833 279.5,110.5C 278.317,111.504 276.984,112.338 275.5,113C 249.167,113.667 222.833,113.667 196.5,113C 192.5,109.667 192.5,106.333 196.5,103C 223.167,102.333 249.833,102.333 276.5,103C 277.373,104.045 278.373,104.878 279.5,105.5 Z"/></g>
<g><path style="opacity:1" fill="#435f5f" d="M 279.5,130.5 C 279.5,132.167 279.5,133.833 279.5,135.5C 278.373,136.122 277.373,136.955 276.5,138C 249.833,138.667 223.167,138.667 196.5,138C 192.5,134.667 192.5,131.333 196.5,128C 222.833,127.333 249.167,127.333 275.5,128C 276.984,128.662 278.317,129.496 279.5,130.5 Z"/></g>
<g><path style="opacity:1" fill="#ed6262" d="M 279.5,181.5 C 279.5,199.833 279.5,218.167 279.5,236.5C 278.711,236.783 278.044,237.283 277.5,238C 246.161,238.833 214.828,238.667 183.5,237.5C 182.845,227.878 182.512,218.212 182.5,208.5C 182.506,198.925 182.84,189.425 183.5,180C 214.833,179.333 246.167,179.333 277.5,180C 278.044,180.717 278.711,181.217 279.5,181.5 Z"/></g>
<g><path style="opacity:1" fill="#425e5e" d="M 80.5,190.5 C 106.502,190.333 132.502,190.5 158.5,191C 163.395,193.823 163.729,197.157 159.5,201C 132.833,201.667 106.167,201.667 79.5,201C 75.5141,197.105 75.8475,193.605 80.5,190.5 Z"/></g>
<g><path style="opacity:1" fill="#3e595a" d="M 78.5,216.5 C 105.835,216.333 133.169,216.5 160.5,217C 163.311,220.294 162.978,223.294 159.5,226C 132.833,226.667 106.167,226.667 79.5,226C 75.8345,223.175 75.5012,220.008 78.5,216.5 Z"/></g>
<g><path style="opacity:1" fill="#fd7909" d="M 78.5,259.5 C 85.4222,259.188 92.2555,259.521 99,260.5C 99.8281,288.405 99.6614,316.239 98.5,344C 91.8333,344.667 85.1667,344.667 78.5,344C 78,343.5 77.5,343 77,342.5C 76.3333,315.5 76.3333,288.5 77,261.5C 77.7172,260.956 78.2172,260.289 78.5,259.5 Z"/></g>
<g><path style="opacity:1" fill="#597679" d="M 276.5,269.5 C 251.122,269.185 225.789,269.519 200.5,270.5C 200.611,269.883 200.944,269.383 201.5,269C 226.67,268.17 251.67,268.337 276.5,269.5 Z"/></g>
<g><path style="opacity:1" fill="#405c5c" d="M 276.5,269.5 C 277.5,270.167 278.5,270.833 279.5,271.5C 279.5,273.167 279.5,274.833 279.5,276.5C 278.317,277.504 276.984,278.338 275.5,279C 250.833,279.667 226.167,279.667 201.5,279C 199.448,276.226 199.114,273.393 200.5,270.5C 225.789,269.519 251.122,269.185 276.5,269.5 Z"/></g>
<g><path style="opacity:1" fill="#fd983b" d="M 121.5,279.5 C 127.842,279.334 134.175,279.5 140.5,280C 141,280.5 141.5,281 142,281.5C 142.826,302.406 142.66,323.24 141.5,344C 138,344.167 134.5,344.333 131,344.5C 127.069,344.456 123.402,343.789 120,342.5C 119.333,322.167 119.333,301.833 120,281.5C 120.717,280.956 121.217,280.289 121.5,279.5 Z"/></g>
<g><path style="opacity:1" fill="#3e595a" d="M 278.5,297.5 C 279.301,299.042 279.634,300.708 279.5,302.5C 278.373,303.122 277.373,303.955 276.5,305C 251.5,305.667 226.5,305.667 201.5,305C 198.833,302 198.833,299 201.5,296C 226.5,295.333 251.5,295.333 276.5,296C 277.416,296.278 278.082,296.778 278.5,297.5 Z"/></g>
<g><path style="opacity:1" fill="#fdaa5e" d="M 164.5,305.5 C 170.842,305.334 177.175,305.5 183.5,306C 184,306.5 184.5,307 185,307.5C 185.667,319.167 185.667,330.833 185,342.5C 184.5,343 184,343.5 183.5,344C 176.586,344.811 169.752,344.645 163,343.5C 162.833,337.333 162.667,331.167 162.5,325C 162.54,318.261 163.207,311.761 164.5,305.5 Z"/></g>
<g><path style="opacity:1" fill="#5b787b" d="M 276.5,322.5 C 251.122,322.185 225.789,322.519 200.5,323.5C 200.611,322.883 200.944,322.383 201.5,322C 226.67,321.17 251.67,321.337 276.5,322.5 Z"/></g>
<g><path style="opacity:1" fill="#415c5d" d="M 276.5,322.5 C 277.5,323.167 278.5,323.833 279.5,324.5C 279.5,326.167 279.5,327.833 279.5,329.5C 278.317,330.504 276.984,331.338 275.5,332C 250.833,332.667 226.167,332.667 201.5,332C 199.448,329.226 199.114,326.393 200.5,323.5C 225.789,322.519 251.122,322.185 276.5,322.5 Z"/></g>
</svg>
